<svg xmlns="http://www.w3.org/2000/svg" viewBox="0 0 604 604" height="200" width="200"><path d="M298.544 552.227c.345-.56 1.047-.758 1.559-.441 1.387.857 1.128 1.457-.629 1.457-.857 0-1.276-.457-.93-1.016zm-9.432-29.567c.048-1.165.285-1.402.605-.605.288.722.253 1.585-.08 1.917-.332.332-.568-.258-.525-1.312zm44.616-8.949c-1.544-1.357-2.41-2.468-1.925-2.468.485 0 1.939 1.125 3.23 2.5 2.989 3.181 2.328 3.165-1.305-.032zm-47.695.532c0-.55-1.098-1-2.44-1-1.343 0-2.733-.472-3.09-1.049-.445-.72-1.075-.694-2.015.086-.752.625-1.806.864-2.342.533-.536-.332-1.258-.144-1.604.416-.414.67-1.251.687-2.438.052-.994-.532-2.19-.646-2.656-.253-.467.393-.246-.073.49-1.035.738-.963 1.912-1.75 2.61-1.75 1.543 0 2.727-2.497 3.037-6.399.126-1.594.954-3.304 1.839-3.8.885-.495 1.61-1.513 1.61-2.263 0-.835.906-1.262 2.345-1.104 4.501.494 4.415.3 6.163 13.816.397 3.069.238 4.75-.447 4.75-.584 0-1.062-.45-1.062-1zm11-.5c0-1.03.656-1.52 1.75-1.31 2.108.406 1.975 2.181-.197 2.633-.906.189-1.553-.362-1.553-1.323zm23-.5c-.9-.583-1.024-.976-.309-.985.655-.008 1.47.435 1.81.985.767 1.241.42 1.241-1.5 0zm-14.5-8c-.995-1.1-1.306-2-.69-2 .616 0 1.602.9 2.19 2 .59 1.1.9 2 .69 2-.209 0-1.194-.9-2.19-2zm-113.5-3.3c0-.715.563-1.867 1.25-2.56 1.003-1.01.855-1.132-.75-.618-1.972.632-1.973.62-.058-.94 2.606-2.124 3.47-1.996 4.452.66.598 1.615.38 2.583-.782 3.467-2.125 1.618-4.112 1.614-4.112-.01zm50 0c0-.715.563-1.867 1.25-2.56 1.003-1.01.855-1.132-.75-.618-1.972.632-1.973.62-.058-.94 2.606-2.124 3.47-1.996 4.452.66.598 1.615.38 2.583-.782 3.467-2.125 1.618-4.112 1.614-4.112-.01zm84-.2c0-.825.45-1.5 1-1.5s1 .675 1 1.5-.45 1.5-1 1.5-1-.675-1-1.5zm-24-1.5c-.588-1.1-1.936-2-2.995-2-2.883 0-13.005-3.29-13.005-4.227 0-.449 1.125-1.329 2.5-1.955 3.05-1.39 3.239-3.449.4-4.35-1.55-.492-2.947.155-5.336 2.47-2.805 2.719-3.585 3.004-5.85 2.143-1.888-.718-2.506-1.562-2.222-3.038.217-1.124-.022-2.043-.53-2.043s-1.201-1.107-1.54-2.459c-.34-1.352-1.249-2.983-2.02-3.622-4.523-3.754 1.902-16.135 9.07-17.48 1.887-.354 4.778.077 7.306 1.089 4.648 1.86 6.206 5.174 6.217 13.222.005 3.754.271 4.25 2.283 4.25 3.687 0 6.722 2.743 6.722 6.076 0 2.66.255 2.898 2.5 2.335 3.327-.835 3.194.73-.411 4.836-2.228 2.537-2.686 3.72-1.95 5.035.528.945.73 1.718.446 1.718-.283 0-.996-.9-1.585-2zm12.667.333c-.367-.366-.667-1.626-.667-2.8 0-1.173-.562-2.73-1.25-3.458-1.008-1.07-.96-1.238.25-.872.825.25 1.644 1.43 1.82 2.625.176 1.195.663 2.172 1.083 2.172.42 0 .764.675.764 1.5 0 1.582-.883 1.95-2 .833zm82.333-2.774c0-1.945 1.688-2.873 2.586-1.42.485.784.287.9-.601.351-.962-.594-1.15-.362-.686.846.351.915.203 1.664-.33 1.664s-.969-.648-.969-1.441zM1.05 493.604c-.024-1.735 2.873-4.641 9.484-9.516 8.294-6.116 11.575-8.104 12.254-7.425.319.319.055.58-.587.58s-1.167.45-1.167 1 .338.887.75.75c.413-.138.863.2 1 .75.138.55-.177 1-.7 1-.522 0-1.535.628-2.25 1.397-1.077 1.157-1.043 1.278.2.703.825-.38.375.116-1 1.104-1.375.988-4.075 3.374-6 5.302-2.32 2.326-4.403 3.49-6.182 3.455-1.476-.029-2.462.306-2.191.743.27.438.015.796-.568.796-.582 0-1.065-.563-1.074-1.25-.01-.833-.338-.75-.985.25-.533.825-.976.987-.984.36zm180.37-1.033c.313-1.005.177-2.452-.302-3.215-1.347-2.145 1.293-7.438 3.8-7.623 1.88-.138 2.109.358 2.046 4.427-.09 5.864-.872 7.505-3.772 7.911-1.875.263-2.229-.036-1.773-1.5zm-116.386-9.23c0-2.274.783-3.362 3.626-5.04 1.995-1.177 3.87-1.896 4.167-1.599.297.298.016.54-.626.54s-1.167.45-1.167 1 .338.888.75.75c.413-.137.818.2.9.75.083.55-.211.903-.654.783-.442-.12-1.41.529-2.15 1.442-1.15 1.419-1.128 1.547.154.881.825-.428.375.15-1 1.286-3.347 2.765-4 2.635-4-.792zm156.097 1.519c-.891-1.075-.77-1.529.545-2.033 1.984-.761 3.883.758 2.912 2.329-.907 1.468-2.076 1.368-3.457-.296zm2.903-.617c0-.55-.45-1-1-1s-1 .45-1 1 .45 1 1 1 1-.45 1-1zm185.51-7.016c.346-.56 1.048-.758 1.56-.441 1.387.857 1.128 1.457-.629 1.457-.857 0-1.276-.457-.93-1.016zm-53.51-1.984c0-.55.45-1 1-1s1 .45 1 1-.45 1-1 1-1-.45-1-1zm-263.266-6.124c.678-.684 1.485-.99 1.793-.683.308.308-.247.867-1.233 1.243-1.426.542-1.54.427-.56-.56zm239.016-.175c-2.882-1.14-3.882-4.084-1.197-3.524.854.177 1.5.701 1.434 1.164-.066.463.698 1.46 1.697 2.218 2.113 1.602 1.817 1.624-1.934.142zm-183.75-.76c0-.583.45-.781 1-.441s1 .816 1 1.059-.45.44-1 .44-1-.476-1-1.058zm27 .25c0-.445.607-1.638 1.348-2.651.97-1.327 1.554-1.508 2.086-.648.406.658.195 1.85-.47 2.652-1.313 1.582-2.964 1.943-2.964.647zm175-.191c0-.55.45-1 1-1s1 .45 1 1-.45 1-1 1-1-.45-1-1zm-252.75-.69c.963-.25 2.538-.25 3.5 0 .963.252.175.458-1.75.458s-2.712-.206-1.75-.457zm360.98-.498c.618-1.854 2.77-2.161 2.77-.395 0 .87-.712 1.583-1.583 1.583-.87 0-1.405-.534-1.187-1.188zm-355.23-.195c0-.211.901-.62 2.002-.907 1.1-.288 1.749-.116 1.44.383-.537.871-3.442 1.313-3.442.524zm215.51-2.633c.346-.56 1.048-.758 1.56-.441 1.387.857 1.128 1.457-.629 1.457-.857 0-1.276-.457-.93-1.016zm-121.51-2.377c0-1.696 2.705-2.894 3.527-1.563.325.526.313 1.406-.027 1.956-.924 1.495-3.5 1.206-3.5-.393zm78.415.255c-.452-.731-.29-.903.43-.458.636.393 1.155.237 1.155-.345 0-1-1.246-1.425-3.5-1.193-.603.062-1.115-4.735-1.292-12.099-.195-8.16-.692-12.455-1.5-12.969-.664-.422-.758-.82-.208-.885.55-.065-.575-.492-2.5-.949-2.048-.486-3.894-.444-4.45.102-.592.582.13.934 1.917.934 1.577 0 2.588.279 2.247.62-.341.341-2.329.287-4.417-.12-2.675-.52-3.29-.925-2.083-1.37 1.249-.46 1.452-1.037.75-2.13-.856-1.333-1.073-1.333-1.948 0-.703 1.07-.99 1.13-1 .206-.016-1.326-3.074-1.298-4.07.038-.514.688-8.262-1.025-12.108-2.677-1.022-.439-1.83-.204-2.095.61-.238.727-.248.117-.023-1.358.297-1.95-.154-2.981-1.655-3.785-2.152-1.151-2.348-.881-2.332 3.216.008 2.004-2.745 2.338-4.533.55-1.515-1.515-1.551-5.049-.067-6.533.623-.623.865-1.83.538-2.683-.669-1.743-2.867-1.242-6.391 1.457-1.727 1.322-3.15 1.531-6.395.938-2.295-.42-6.867-.519-10.16-.22-5.397.489-6.158.318-7.705-1.733-1.105-1.465-2.75-2.268-4.618-2.254-1.596.013-3.938-.932-5.204-2.099-2.72-2.504-3.703-1.558-4.736 4.556-.35 2.074-.978 3.77-1.394 3.77-1.222 0-3.676-3.184-5.971-7.75-1.744-3.467-2.649-4.25-4.917-4.25-1.529 0-3.207-.414-3.73-.922-.522-.508-2.296-1.07-3.941-1.25-3.892-.425-4.418-3.092-.924-4.684 2.439-1.11 2.532-1.357 1.11-2.929-2.385-2.634-.422-4.982 4.822-5.769 4.776-.716 5.278-1.607 3.323-5.898-.793-1.74-1.981-2.567-3.75-2.61l-2.59-.064 2.33-.934c2.01-.805 2.234-1.382 1.632-4.186-1.268-5.905-3.571-8.546-4.8-5.503-.403 1-.52 1-.583 0-.13-2.051-4.9-1.453-6.085.763-.87 1.625-1.455 1.81-3.036.964-2.506-1.34-2.475-3.05.115-6.342 2.457-3.123 4.927-3.442 4.927-.635 0 1.556.667 2 3 2 3.489 0 3.783-1.48.967-4.861-1.622-1.946-2.565-2.25-5.369-1.723-2.447.459-3.852.187-5.008-.97-2.35-2.35-.956-3.605 3.15-2.835 3.121.585 3.498.45 2.922-1.051-.364-.948-.662-1.898-.662-2.11 0-.674-3.33.603-8.584 3.29-4.726 2.418-8.416 2.605-8.416.427 0-.492 2.138-1.666 4.75-2.609 9.788-3.53 11.919-5.392 4.184-3.654-2.382.535-4.976.612-5.765.17-1.005-.562-.331-1.009 2.252-1.493 2.026-.38 3.934-1.342 4.239-2.136.305-.795 1.83-1.445 3.388-1.445 1.56 0 3.124-.468 3.477-1.04.417-.675-.265-.812-1.94-.392-1.977.496-2.585.27-2.585-.96 0-.895.816-1.608 1.84-1.608 1.012 0 2.352-1.125 2.978-2.5.627-1.375.809-2.5.405-2.5-1.089 0-3.55-6.006-2.777-6.779.365-.365 1.032-.066 1.484.665.531.86 1.046.962 1.462.29.352-.57.184-1.32-.375-1.666-1.685-1.04-1.148-3.37 1.047-4.544 2.75-1.472 5.263.544 4.654 3.732-.357 1.867-.178 2.099.92 1.188.75-.622 1.362-1.798 1.362-2.614 0-.816 1.125-2.82 2.5-4.454 2.602-3.092 3.163-4.818 1.568-4.818-.513 0-1.239-1.013-1.613-2.25-.373-1.238-1.71-3.375-2.97-4.75-1.26-1.375-2.45-3.389-2.646-4.475-.262-1.45-1.283-2.05-3.847-2.257-1.92-.155-5.03-1.01-6.912-1.902-3.155-1.496-3.512-1.496-4.61.007-.654.895-1.555 1.627-2.001 1.627-.446 0-1.577.693-2.512 1.54-.936.847-3.672 1.684-6.08 1.86-2.407.176-5.183.664-6.17 1.084-2.496 1.063-3.58-.372-1.455-1.926 3.013-2.203 1.978-2.543-5.876-1.934-5.604.434-7.832.255-8.408-.676-1.137-1.84-.039-3.948 2.058-3.948 3.052 0 4.876-1.094 4.304-2.583-.736-1.918 1.11-1.798 2.75.178 1.773 2.137 8.578 1.075 11.66-1.82 2.895-2.72 2.862-3.613-.113-3.044-1.435.274-2.325 1.109-2.25 2.111.233 3.125-5.331 1.39-6.61-2.06-.147-.395-1.74-.83-3.541-.965-2.1-.158-3.107-.685-2.806-1.468.258-.672-.356-2.27-1.364-3.551-2.572-3.27-4.041-9.072-2.84-11.218 1.338-2.391.917-2.589-6.067-2.85-3.38-.127-6.145-.594-6.147-1.04 0-.444.336-.604.748-.354.413.25 1.345-.189 2.07-.974 1.11-1.2.825-1.892-1.785-4.33-4.172-3.897-11.732-8.032-14.685-8.032-1.645 0-2.7-.794-3.36-2.526-.527-1.389-1.641-2.787-2.475-3.107-2.412-.925-1.757-3.268 1.117-3.99 1.894-.475 2.888-.2 3.55.982.504.902 1.437 1.64 2.07 1.64.634 0 2.525 1.282 4.2 2.848 4.511 4.212 16.26 10.43 17.11 9.053.434-.701 1.435.046 2.665 1.988 1.083 1.712 2.263 3.098 2.622 3.08 1.808-.087 6.28-5.19 5.753-6.565-.338-.879-1.122-1.228-1.845-.82-.942.533-.931.36.043-.686.788-.846 3.545-1.443 7-1.514 3.135-.065 6.562-.48 7.615-.92 1.3-.545 1.695-.45 1.233.298-1.204 1.948 1.218 2.373 3.817.67 1.386-.908 3.199-1.39 4.028-1.072.896.344 1.507.017 1.507-.807 0-.762-.557-1.571-1.24-1.799-.756-.252-1.12-1.787-.934-3.945.28-3.255.056-3.582-2.863-4.166-3.5-.7-4.963-.182-4.963 1.756 0 1.007-3.89 3.602-5.4 3.602-.17 0-1.499-1.104-2.954-2.453-1.804-1.671-2.511-3.185-2.22-4.75.234-1.263.46-3.4.5-4.747.058-1.906.341-2.183 1.274-1.25 1.39 1.389 6.8 1.633 6.8.307 0-1.542-3.297-2.236-4.235-.89-.594.85-.694.561-.296-.86.578-2.07.47-2.1-3.138-.86-2.055.707-4.295 1.07-4.978.808-1.512-.58-1.132-6.661.542-8.679.647-.778 1.107-1.8 1.022-2.27-.34-1.897.14-3.356 1.102-3.356.612 0 .745 1.1.335 2.75-.63 2.525-.543 2.632 1.057 1.314 1.405-1.158 1.896-1.186 2.54-.143.492.795 1.619 1.033 2.925.619 1.23-.39 2.124-.24 2.124.358 0 1.39 5.651 7.102 7.026 7.102.6 0 .834-.419.517-.931-.316-.512-.118-1.214.441-1.559.56-.345 1.016-1.277 1.016-2.07 0-1.766-2.661-1.92-3.28-.19-.245.687-.838.882-1.318.432-.48-.451.244-1.683 1.613-2.743 2.016-1.561 2.219-2.097 1.073-2.841-.988-.642-1.916-.297-3.084 1.146-1.504 1.858-1.736 1.896-2.318.38-.467-1.219.11-1.983 2.084-2.761 4.974-1.961 5.728-2.549 6.05-4.715.207-1.39-.213-2.148-1.191-2.148-.83 0-1.8-.468-2.153-1.04-.42-.68.296-.805 2.071-.359 2.073.52 2.602.352 2.24-.71-.26-.768-1.55-1.29-2.88-1.167-1.323.124-1.844-.026-1.157-.333 2.818-1.257 1.095-2.54-2.578-1.92-2.842.48-4.162.245-5.123-.912-.711-.858-1.873-1.56-2.58-1.56-.752 0-.191-1.25 1.344-3 3.13-3.566 5.507-3.808 7.63-.777 1.55 2.212 1.557 2.213 1.557.111 0-1.161.849-3.16 1.886-4.44 1.616-1.996 2.116-2.137 3.5-.988 1.263 1.048 1.929 1.079 3.06.14.794-.659 2.482-1.052 3.75-.872 2.822.4 3.813 4.683 1.395 6.036-2.183 1.222-1.999 6.07.338 8.93 1.58 1.934 2.167 2.128 3.242 1.07.897-.883.975-1.517.248-2-2.329-1.55-2.705-8.122-.383-6.687.454.28 1.109.053 1.454-.506 1.297-2.097 2.51-.896 2.51 2.484 0 1.925.45 3.5 1 3.5s.888.337.75.75c-.137.412.753 1.752 1.978 2.977 1.316 1.317 1.979 2.875 1.62 3.81-.406 1.059.074 1.76 1.453 2.121 2.63.688 3.491 2.928 2.115 5.5-1.26 2.355-.644 3.335 1.566 2.487 1.06-.406 1.381-1.344.991-2.897-.444-1.77.133-2.82 2.523-4.586 2.426-1.794 2.948-2.764 2.407-4.469-.61-1.924-.501-2.02.939-.825 1.497 1.243 1.468 1.559-.356 3.877-2.149 2.732-2.607 5.255-.954 5.255.567 0 1.256-.587 1.531-1.304.54-1.407 7.078-1.654 9.193-.347.684.423 1.764.448 2.399.055.715-.442.883-.274.44.441-.392.635-.273 1.155.265 1.155.537 0 1.95 1.575 3.14 3.5 2.475 4.004 4.69 4.533 5.233 1.25.295-1.781.66-1.348 1.752 2.079 1.115 3.5 1.134 4.48.099 5.12-.704.435-1.124 1.563-.932 2.508.304 1.498.721 1.396 3.276-.804 2.154-1.855 2.658-2.869 1.91-3.837-1.294-1.676-1.019-6.777.413-7.662.6-.37 1.396-1.889 1.768-3.373.373-1.485 1.308-3.223 2.08-3.863.77-.64 1.401-1.728 1.401-2.418 0-.69.675-1.815 1.5-2.5 1.931-1.603 1.924-5.951-.015-8.72-1.373-1.959-1.352-2.255.22-3.135 1.426-.798 1.026-1.1-2.234-1.689-2.184-.394-4.42-1.058-4.97-1.475-.55-.417-3.639-1.341-6.864-2.054-6.504-1.438-9.037-3.29-8.308-6.075.266-1.018.006-2.145-.577-2.506-.624-.385-.767-.18-.347.5.392.634.237 1.154-.346 1.154-.582 0-1.059-.84-1.059-1.865 0-1.026-.828-2.939-1.84-4.25-1.95-2.525-3.54-7.238-2.154-6.382.965.596.63-3.665-.42-5.365-.398-.644-1.053-.967-1.455-.72-.401.25-1.304-.465-2.004-1.587-.7-1.122-.818-1.759-.26-1.414.565.35.947-.236.865-1.326-.08-1.074-.553-1.702-1.048-1.395-1.348.833.267-7.815 1.956-10.478.797-1.255 1.916-1.993 2.487-1.64.571.353.293-.8-.618-2.56-1.649-3.19-1.158-5.93.524-2.924 1.39 2.482 11.645 1.322 15.294-1.73 1.555-1.3 3.43-2.364 4.167-2.364.737 0 1.497-.47 1.689-1.046.401-1.205 6.384-2.334 12.576-2.374 2.343-.014 4.114-.462 3.937-.993-.44-1.32-8.66-1.65-11.167-.448-1.99.953-1.991.941-.087-.584 1.067-.855 2.53-1.555 3.249-1.555.818 0 1.292-1.217 1.265-3.25a446.679 446.679 0 0 1-.042-4.75c.001-.825-.092-3.3-.206-5.5-.147-2.843.194-4 1.178-4 1.81 0 4.54 10.282 3.17 11.934-2.242 2.7 1.813 7.566 6.304 7.566 1.934 0 6.932 5.662 6.33 7.17-.366.915-.556.803-.61-.361-.044-.93-.5-1.951-1.015-2.27-.58-.357-.586.641-.019 2.621.505 1.76 1.489 3.562 2.186 4.004 1.158.735.365 1.246-1.482.954-1.263-.2-.831 1.685.5 2.184.917.343.811.832-.396 1.833-1.524 1.264-1.508 1.68.21 5.615 1.02 2.337 2.342 4.25 2.937 4.25 2.472 0 9 8.6 9 11.855 0 1.125.724 2.45 1.609 2.946 1.48.828 1.48.95 0 1.519-2.322.89-1.985 2.59.39 1.97 1.359-.356 2-.031 2 1.012 0 .844.268 2.359.595 3.366.352 1.087.25 1.396-.25.759-1.17-1.487-4.345-2.56-4.345-1.469 0 .492.788 1.101 1.75 1.353 1.667.435 1.667.462 0 .573-.962.064-1.75.562-1.75 1.108 0 1.31 5.76.647 7.242-.833 1.655-1.655 3.235-1.438 1.832.252-.896 1.08-.889 1.585.032 2.154.716.443.943.322.56-.297-.899-1.455 1.967-3.609 3.54-2.662 1.013.609 1.041.464.13-.665-.99-1.223-.488-1.388 3.294-1.087 4.362.347 4.446.297 3.81-2.24-.782-3.116 2.132-4.913 3.955-2.439.608.825 1.78 1.763 2.605 2.084 1.013.394.77.609-.75.662-2.462.086-3.181 2.079-.75 2.079.825 0 1.5.379 1.5.841 0 .947 8.634-.141 9.716-1.224.384-.383-.237-.94-1.378-1.239-2.006-.525-1.983-.643.716-3.597 1.885-2.064 3.423-2.89 4.741-2.545 1.523.398 1.844.1 1.462-1.363-.27-1.03-.79-1.873-1.159-1.873-.368 0-.72-.788-.784-1.75-.063-.963-.452-4.153-.864-7.09-.732-5.216-.695-5.33 1.617-5 1.683.242 2.635 1.279 3.295 3.59.631 2.212 1.54 3.25 2.842 3.25 1.053 0 1.636-.45 1.296-1-.34-.55.05-1 .865-1 1.286 0 1.272.429-.113 3.25-.877 1.787-2.045 3.549-2.594 3.915-.63.418-.428 1.536.545 3.02.849 1.297 1.771 4.148 2.05 6.336.793 6.235 1.583 8.744 3.281 10.423 1.427 1.41 1.508 1.369.861-.444-.392-1.1-.341-1.662.113-1.25.455.413.887 1.574.961 2.58.075 1.005 1.097 2.86 2.272 4.122 2.07 2.221 2.119 2.227 1.585.185-.303-1.159-.266-2.85.083-3.758.584-1.522.782-1.516 2.545.079 1.051.951 1.677 2.341 1.39 3.088-.286.747-.156 1.942.29 2.656.446.714.902 1.902 1.013 2.64.112.737.35 1.436.528 1.552 4.6 2.986 5.797 3.46 6.374 2.527.36-.582 1.269-.821 2.02-.533.752.289 1.634.093 1.96-.434.378-.612 1.249-.609 2.4.008.995.532 2.19.645 2.657.252.467-.393.246.073-.49 1.035-.738.963-1.912 1.75-2.611 1.75-1.513 0-2.723 2.48-3.026 6.202-.12 1.487-.953 3.435-1.848 4.331-1.906 1.906-1.28 3.468 1.387 3.468 3.05 0 8.228 5.368 7.838 8.125-.283 2.004-.945 2.399-4.238 2.528-2.499.098-3.408-.152-2.529-.696.755-.466 1.06-1.162.677-1.545-.879-.879-3.894 1.538-3.24 2.596.265.43-.19 1.04-1.011 1.356-.822.315-1.495 1.53-1.495 2.698 0 1.284-.791 2.332-2 2.648-1.294.339-2 1.364-2 2.907 0 2.63 1.587 3.013 4.216 1.016 1.347-1.023 1.454-1.565.5-2.527-.956-.963-.869-1.093.407-.607 1.3.494 1.525.107 1.133-1.941-.585-3.063 1.666-3.575 2.455-.558.287 1.1 1.103 2 1.812 2 .798 0 1.09-.764.767-2-.287-1.1-.114-2 .386-2s1.451 2.025 2.113 4.5c1.33 4.973 3.627 5.967 4.622 2 .345-1.375 1.294-2.5 2.108-2.5.815 0 1.481-.675 1.481-1.5 0-2.107-.742-1.881-3.463 1.055-2.3 2.482-2.385 2.497-3.016.509-.357-1.126-.3-2.612.128-3.304.427-.692.794-2.119.814-3.171.053-2.696 2.555-3.236 3.22-.694.327 1.25 1.358 2.105 2.541 2.105 1.358 0 1.808-.476 1.415-1.5-.317-.825-.14-1.5.393-1.5s.968-.9.968-2c0-2.063-1.573-2.781-2.17-.99-.185.555-.894.117-1.575-.974-1.152-1.845-1.03-1.941 1.754-1.384 1.645.329 2.991.192 2.991-.305 0-1.412-4.357-4.835-5.763-4.529-2.23.487-2.714-3.01-.653-4.724 1.054-.877 2.042-2.72 2.195-4.094.154-1.375.341-3.038.417-3.694.076-.657.4-1.149.721-1.092.32.057 1.377-.243 2.346-.667 1.021-.446 2.362-.274 3.186.41 1.034.859 1.97.89 3.422.112 3.134-1.677 5.746-1.265 7.487 1.18.88 1.238 1.36 1.521 1.064.63-.295-.892.164-2.322 1.02-3.179.858-.856 1.552-2.152 1.543-2.879-.011-.99-.248-.953-.946.15-1.81 2.862-1.609.479.25-2.971 1.706-3.164 1.846-3.243 1.452-.822-.446 2.742-.248 2.811 5.51 1.936.412-.063.75-.59.75-1.173 0-.583-.403-.81-.896-.506-.492.304-1.164-.147-1.493-1.004-.328-.857-.976-1.324-1.438-1.038-.462.285-.84-.136-.84-.937 0-.848.95-1.456 2.274-1.456 1.25 0 2.596-.52 2.989-1.156 1.055-1.707-5.333-.25-7.233 1.65-2.36 2.36-5.379 3.714-6.942 3.114-2.113-.81-1.779-1.831 2.078-6.337 3.64-4.251 4.137-5.271 2.574-5.271-.51 0-1.133.787-1.384 1.75-.416 1.59-.468 1.58-.574-.094-.066-1.061.729-2.064 1.875-2.364 1.529-.4 1.851-1.075 1.39-2.913-.372-1.479.067-3.412 1.146-5.06 1.668-2.546 1.808-2.582 3.11-.801 2.237 3.058 1.699 6.404-1.206 7.508-2.387.908-2.452 1.095-.923 2.625.906.906 1.435 2.46 1.176 3.452-.39 1.494-.01 1.712 2.21 1.268 4.826-.965 7.219 2.135 7.848 10.168.3 3.828 1.043 7.292 1.652 7.696.77.511.727.739-.144.75-.687.008-1.25.69-1.25 1.515s-.445 1.5-.99 1.5c-.545 0-2.008 1.57-3.25 3.488-1.243 1.918-2.652 3.493-3.132 3.5-.48.007-.346-.623.299-1.399.7-.844.791-1.645.227-1.994-.52-.321-1.248.201-1.619 1.16-.477 1.233.266 2.533 2.533 4.433 2.72 2.28 3.114 3.152 2.595 5.75-.337 1.684-.286 3.113.112 3.176 4.322.68 6.225.593 6.225-.282 0-.632-1.092-.795-2.75-.41-1.996.464-2.341.368-1.258-.35.82-.543 1.495-1.756 1.5-2.694.013-2.536 2.554-2.92 3.191-.483.303 1.158 1.097 2.105 1.765 2.105 2.004 0 3.436-4.196 3.18-9.318-.193-3.84.138-5.022 1.63-5.82 1.395-.746 1.597-1.332.795-2.3-1.312-1.58 1.042-4.04 2.521-2.635.51.483 1.784 1.035 2.832 1.226 1.85.337 1.851.391.058 1.847-1.061.862-1.528.968-1.097.25 1.196-1.99-.878-1.447-2.867.75-.995 1.1-1.402 2.007-.905 2.015.498.008.237.438-.579.954-1.835 1.16-1.833 8.908.002 10.042.748.462 1.025 1.715.676 3.05-.52 1.993-.415 2.089.877.797.808-.808 1.67-2.518 1.918-3.8.56-2.912 1.51-3.966 1.51-1.675 0 2.5-2.678 7.28-4.462 7.964-.845.325-1.537 1.102-1.537 1.729 0 .626.675.879 1.5.562 2.13-.817 1.858.611-.5 2.63-2.536 2.172-2.534 3.428.007 4.234 1.467.466 4.57-1.15 11.517-5.993 5.23-3.646 10.229-7.728 11.108-9.07 1.717-2.62 3.397-3.222 3.322-1.19-.025.688-1.215 2.15-2.643 3.25-1.429 1.1-3.566 2.9-4.75 4-1.183 1.1-2.581 2.226-3.106 2.5-.525.276-.805.95-.621 1.5.183.55-.005.662-.42.249-.951-.952-4.414 2.112-4.414 3.907 0 .74-.487 1.345-1.083 1.345s-.883.562-.639 1.25c.245.687-1.743 3.586-4.417 6.44-4.76 5.084-5.919 7.31-3.802 7.31.583 0 .781.45.441 1-1.077 1.744 1.49 1.086 6.322-1.619l4.678-2.618-3.127 2.595c-3.529 2.928-5.05 6.642-2.72 6.642.806 0 1.183.457.837 1.016-.93 1.505-1.665 6.682-.755 5.32.584-.875 1.227-.838 2.575.148 1.343.982 1.468 1.446.493 1.839-1.048.422-1.03.715.087 1.496 1.101.77.791 1.295-1.5 2.536l-2.89 1.565 2.818.04c2.456.035 2.728.328 2.118 2.29-.385 1.237-1.093 2.4-1.574 2.585-.48.185-.546.86-.144 1.5.401.64.741 1.84.756 2.665.015.825.796 1.44 1.737 1.368.941-.073 1.616.377 1.5 1-.116.622 1.22 1.27 2.97 1.44 1.75.17 5.731 1.612 8.848 3.207 5.328 2.724 5.512 2.937 3.07 3.55-2.507.629-2.781.965-2.999 3.685-.145 1.823-1.73 2.717-4.85 2.735-1.77.01-2.75.549-2.75 1.515 0 .825-.498 1.5-1.107 1.5-.608 0-.848.675-.53 1.5.774 2.018-4.264 2.042-6.921.032-2.201-1.665-3.846-1.996-2.984-.601.316.512.118 1.213-.441 1.559-1.76 1.088-1.11 2.448 1.483 3.1 1.375.344 2.5 1.017 2.5 1.494 0 .476-1.129.437-2.51-.088-2.97-1.13-8.42 1.06-10.357 4.164-1.135 1.817-1.057 1.876 1.072.81 1.884-.942 1.798-.729-.484 1.191-3.37 2.837-3.278 6.53.298 11.963 2.28 3.461 2.81 3.699 11.857 5.315 8.722 1.558 9.544 1.563 10.379.07.499-.89 1.987-2.03 3.307-2.533 1.702-.647 2.211-1.404 1.752-2.603-.545-1.419-.18-1.596 2.269-1.104 4.684.94 8.417 2.598 8.417 3.737 0 1.915-2.972 2.242-5.472.604-1.352-.886-2.848-1.61-3.326-1.61-1.19 0-1.152 3.218.057 4.75.7.887.533 1.25-.577 1.25-2.956 0-2.776 1.972.352 3.874 1.856 1.129 2.691 2.178 2.05 2.575-1.96 1.21-1.136 2.78 1.166 2.225 3.336-.805 13.25 1.707 13.25 3.357 0 1.895-7.059 3.275-9.654 1.887-2.244-1.201-4.05-.28-1.972 1.004.958.592.67.976-1.059 1.41-3.183.799-6.815-.24-6.815-1.949 0-.76-.675-1.383-1.5-1.383s-1.5.852-1.5 1.893c0 2.414-1.957 3.15-6.442 2.423-2.858-.464-3.558-.257-3.558 1.053 0 .897.45 1.63 1 1.63 1.81 0 1.043 1.757-1 2.29-1.164.305-2 1.365-2 2.538 0 2.18-2.365 3.008-9.5 3.326-4.268.19-8.694 3.176-7.874 5.313.264.69-.758 2.78-2.272 4.644-1.514 1.864-2.877 3.567-3.03 3.782-.151.216-.987-.197-1.856-.919-1.317-1.093-1.53-1.075-1.274.108.169.78.756 1.762 1.306 2.182.601.458-.254 1.855-2.14 3.5-2.524 2.198-3.056 3.327-2.706 5.737.567 3.897 3.087 5.958 5.176 4.233.822-.678 2.376-1.233 3.454-1.233 1.078 0 2.693-1.103 3.588-2.45 1.52-2.288 1.514-2.407-.09-1.794-.944.361-1.95.281-2.233-.177-.283-.459 1.361-.776 3.655-.706 3.89.118 4.231.362 5.073 3.627 1.163 4.503 2.446 6 5.146 6 1.197 0 2.698.52 3.335 1.158 1.369 1.368 4.242-.515 4.242-2.78 0-1.696 3.166-1.813 4.8-.178.66.66 1.2 1.932 1.2 2.826 0 2.15-4.552 6.369-5.944 5.508-.601-.371-3.384-.846-6.184-1.054-4.997-.372-5.058-.343-3.32 1.576.973 1.076 1.436 2.29 1.027 2.698-.408.408-1.61-.45-2.673-1.909-1.332-1.829-2.547-2.49-3.917-2.132-1.092.286-3.087-.203-4.435-1.086-2.339-1.533-4.362-.744-3.145 1.226.29.469-.119 1.706-.909 2.75-.79 1.043-1.45 2.652-1.468 3.576-.017.923-.754 2.4-1.638 3.284-2.01 2.01-4.394.402-4.394-2.963 0-1.24-.675-2.815-1.5-3.5s-1.5-1.865-1.5-2.622c0-1.622-2.589-1.852-3.539-.315-.36.585.063 1.858.941 2.829.88.97 1.598 2.652 1.598 3.737 0 1.084.563 2.577 1.25 3.318 1.018 1.096.971 1.185-.25.478-.825-.478-2.148-.967-2.94-1.087-4.212-.636-5.873-1.516-6.358-3.37-.354-1.354.116-2.462 1.38-3.252 2.33-1.454 2.417-3.025.347-6.184-1.129-1.723-1.295-2.913-.59-4.23 1.133-2.118.004-3.995-3.839-6.383-2.107-1.308-2.892-1.348-5-.25-1.375.716-3.573 1.308-4.884 1.316l-2.385.015 2.542 2c3.165 2.489 3.368 2.484 4.043-.1.574-2.193 2.684-1.764 2.684.544 0 .73 1.125 2.063 2.5 2.964 1.965 1.287 2.5 2.48 2.5 5.565 0 2.402-.566 4.245-1.458 4.744-.813.455-1.588 2.62-1.75 4.89-.25 3.505-.57 4.006-2.292 3.589-3.105-.753-4.5-2.23-4.5-4.769 0-1.28-.717-2.73-1.594-3.22-1.54-.862-1.79-3.163-1.156-10.68.174-2.062-.24-3.07-1.351-3.294-1.224-.247-1.821.928-2.529 4.972-.787 4.503-.65 5.68.914 7.874 2.645 3.707 1.473 7.94-2.137 7.72-1.456-.09-3.169-.552-3.808-1.029-.684-.511-1.43-.43-1.819.198-.362.585-1.077.806-1.589.49-1.696-1.049-3.13.597-1.857 2.13.922 1.112.844 1.412-.368 1.412-.846 0-1.728.337-1.958.75-.231.412-.3.232-.153-.402.147-.633-.646-1.39-1.763-1.682-1.116-.292-1.776-.277-1.466.033 1.031 1.031-1.425 4.382-2.666 3.637-.877-.526-.866-.307.042.814.682.844.945 1.83.583 2.192-.362.362.317.658 1.509.658 2.42 0 2.766-1 .966-2.8-.66-.66-.772-1.193-.25-1.185 2.163.035 2.952 1.753 2.979 6.485.027 4.69-.134 5.012-2.601 5.198-2.316.174-2.588-.125-2.274-2.5.195-1.484.093-2.023-.228-1.198-.321.825-.853 2.175-1.181 3-.329.825-.905-1.375-1.281-4.888-.626-5.843-1.041-6.716-4.867-10.25-4.09-3.776-5.833-4.862-4.598-2.865.406.657-.243.67-1.906.038-1.614-.614-2.736-.612-3.118.006-.382.619-1.244.618-2.404-.003-.994-.532-2.164-.646-2.6-.253-.435.393-.468.153-.072-.535.974-1.693-.459-1.523-2.899.344-1.976 1.512-1.977 1.547-.058 2.968 1.067.791 2.755 1.438 3.75 1.438.994 0 1.808.436 1.808.969 0 .532-.675.71-1.5.393-1.03-.396-1.5.062-1.5 1.464 0 2.38-2.997 3.627-6.242 2.597-2.072-.657-2.129-.572-.75 1.125.82 1.01.973 1.525.338 1.144-.827-.496-1.005.426-.627 3.245.817 6.095-.453 10.985-3.176 12.226-2.641 1.203-4.181 6.837-1.87 6.837 1.51 0 1.806 2.586.396 3.457-.512.317-1.256.049-1.654-.595zm12.585-29.862c0-.55-.675-1-1.5-1s-1.5-.436-1.5-.969c0-.532-.7-.7-1.557-.37-1.267.486-1.128.834.75 1.87 2.926 1.614 3.807 1.723 3.807.469zm-34-3c0-.55-.198-1-.44-1-.243 0-.72.45-1.06 1-.34.55-.141 1 .441 1 .583 0 1.06-.45 1.06-1zm-19.512-2.75c-.184-.963-.369-2.313-.411-3-.042-.688-.527-1.25-1.077-1.25-1.112 0-1.38 4.286-.333 5.333 1.232 1.233 2.16.681 1.821-1.083zm32.342.66c3.1-1.081 3.114-1.118 1.584-4.077-1.45-2.804-1.8-2.945-5.729-2.297-2.302.38-4.76 1.155-5.464 1.724-.944.763-2.046.176-4.2-2.238-2-2.239-3.806-3.266-5.721-3.253-1.54.01-3.536-.632-4.436-1.427-1.452-1.283-1.879-1.138-3.788 1.289-3.473 4.415-2.449 5.863 4.178 5.906 3.286.022 6.259.584 6.984 1.321 1.024 1.042.697 1.164-1.738.65-2.47-.523-2.688-.436-1.23.49.974.618 2.55.881 3.5.585.952-.297 2.855.082 4.23.84 3.116 1.72 7.744 1.91 11.83.486zm22.255-4.482c1.329-.144 2.753-.299 3.165-.345.413-.046.75-.588.75-1.205 0-.776-.463-.738-1.5.122-1.209 1.004-1.501.979-1.507-.128-.004-.754-1.22-1.935-2.7-2.622-3.315-1.54-4.293-1.572-4.293-.143 0 .609.686.844 1.524.522 1.205-.462 1.32-.207.554 1.226-.533.995-1.673 2.395-2.535 3.11-1.182.98-1.293 1.631-.449 2.648.916 1.104 1.43.962 2.847-.788.95-1.174 2.816-2.253 4.144-2.397zm-105.58-13.257c-1.096-1.095-2.747 1.751-2.037 3.512.659 1.634.825 1.576 1.654-.578.507-1.318.68-2.638.383-2.934zm186.495 1.329c0-.825-.176-1.5-.393-1.5-.216 0-.652.675-.968 1.5-.317.825-.14 1.5.393 1.5s.968-.675.968-1.5zm-2.816-2.717c-.718-.717-1.184-.776-1.184-.15 0 .569.3 1.334.667 1.7.367.367.9.434 1.183.15.285-.284-.015-1.049-.666-1.7zm-22.23-6.869c-.613-1.147-1.368-1.833-1.677-1.524-.309.309.008 1.247.703 2.086 1.798 2.166 2.284 1.886.975-.562zm-96.954-34.03V343.01l4.128 3.73c7.22 6.522 11.68 7.923 25.372 7.965 11.078.035 12.423-.17 17.5-2.678 3.025-1.494 7.254-4.169 9.398-5.944 7.662-6.347 17.04-24.296 14.676-28.09-.842-1.352-.773-1.75.307-1.75.807 0 1.732-1.584 2.19-3.75.926-4.38 1.297-31.25.432-31.25-.323 0-1.103-1.913-1.733-4.25-.63-2.338-1.933-6.05-2.896-8.25-1.947-4.444-2.07-4.832-2.249-7.06-.068-.857-.552-1.294-1.074-.971-.523.323-1.439-.326-2.036-1.441s-.717-2.028-.267-2.028c.45 0 .907-2.06 1.017-4.577.22-5.079-1.623-5.785-2.875-1.101-.396 1.48-.383 2.483.028 2.229.412-.255.75.192.75.993 0 1.835-1.558 1.904-2.25.1-.706-1.838-14.01-8.328-18.668-9.107-3.478-.582-3.75-.451-3.75 1.807 0 1.339-.83 3.459-1.843 4.711l-1.844 2.277-1.534-3.074c-1.386-2.78-1.38-3.227.058-4.666 1.456-1.456 1.364-1.592-1.074-1.592-4.635 0-14.096 2.918-18.71 5.771-2.448 1.513-6.386 5.126-8.751 8.028l-4.302 5.276v-17.075h-20v11.953c0 7.013.485 13.017 1.173 14.527.897 1.97.897 2.85 0 3.747-1.645 1.645-1.46 3.773.327 3.773 1.875 0 1.875 2.72 0 6-1.185 2.074-1.435 11.138-1.464 53.25l-.036 50.75h20v-24.116zm39-26.884c0-.55.45-1 1-1s1 .45 1 1-.45 1-1 1-1-.45-1-1zm-23.078-1.885c-2.519-.986-7.131-3.719-10.25-6.074l-5.672-4.281v-48.46l5.25-5.194c7.347-7.268 15.825-11.294 24.152-11.47 3.773-.079 6.126-.508 5.612-1.022-.514-.514-.313-1.458.48-2.25 2.133-2.134 2.808-1.622 2.156 1.636-.678 3.39.854 4.044 2.932 1.25 1.867-2.511 4.918-.42 4.918 3.37 0 1.584.97 4.455 2.155 6.38 3.222 5.233 5.14 12.836 5.92 23.471.385 5.241 1.086 9.529 1.56 9.529 1.164 0 9.033 7.166 8.477 7.721-.686.687-4.826-1.7-7.862-4.53l-2.75-2.565-.011 2.937c-.018 4.33-2.572 13.18-5.347 18.53-2.154 4.151-2.262 4.858-.943 6.177 1.318 1.318 1.187 1.43-1.14.986-1.608-.307-3.309.113-4.38 1.083-5.243 4.744-16.941 6.03-25.257 2.776zm-24.922-.115c-.9-.583-1.024-.976-.309-.985.655-.008 1.47.435 1.81.985.767 1.241.42 1.241-1.5 0zm-6-10c-.9-.583-1.024-.976-.309-.985.655-.008 1.47.435 1.81.985.767 1.241.42 1.241-1.5 0zm69.15-.95c.22-.66.727-1.166 1.125-1.125 1.196.124.965 1.495-.325 1.925-.66.22-1.02-.14-.8-.8zm-71.15-7.05c0-.55.45-1 1-1s1 .45 1 1-.45 1-1 1-1-.45-1-1zm82.705-5.67c-.717-1.158.953-4.006 1.833-3.126.355.355.217 1.412-.308 2.35-.524.936-1.21 1.286-1.525.777zm-83.393-18.58c-1.808-2.42-.883-4.243 2.31-4.554 2.197-.214 3.314.195 3.768 1.377 1.297 3.379-3.899 6.095-6.078 3.177zm75.105-6.518c.28-4.145 1.414-7.382 2.946-8.406.651-.435.545-1.232-.3-2.25-.829-1-.91-1.576-.22-1.576 1.553 0 3.436 3.74 2.106 4.184-.57.19-.16 1.286.911 2.435 1.49 1.598 1.79 2.862 1.276 5.373-.566 2.765-1.169 3.338-3.82 3.628-3.069.336-3.144.249-2.899-3.388zm-6.24-13.785c.452-2.172 2.227-2.305 2.633-.197.21 1.095-.28 1.75-1.31 1.75-.96 0-1.512-.647-1.323-1.553zm-4.177-21.53c0-2.437 2.337-2.093 2.824.416.191.987-.319 1.667-1.25 1.667-.928 0-1.574-.855-1.574-2.083zm-3.417-4.783c-.43-.697-.513-1.537-.183-1.867.895-.895 1.871.421 1.388 1.871-.339 1.016-.575 1.016-1.205-.004zm107.917 111.866c.34-.55-.083-1-.94-1-.858 0-1.56.45-1.56 1s.424 1 .941 1c.518 0 1.22-.45 1.56-1zm-20.5-4c0-.55-.476-1-1.059-1-.582 0-.78.45-.44 1s.816 1 1.058 1c.243 0 .441-.45.441-1zm-4-15c0-.55-.45-1-1-1s-1 .45-1 1 .45 1 1 1 1-.45 1-1zm-39-58.441c0-.243-.45-.72-1-1.06-.55-.339-1-.14-1 .442 0 .582.45 1.059 1 1.059s1-.198 1-.441zm-1.485-2.56c1.271 0 3.117-3.61 2.684-5.25-.11-.412.503-.75 1.36-.75.858 0 1.293-.43.968-.955-.325-.526-1.251-.703-2.059-.393-.828.317-1.514-.029-1.574-.794l-.25-3.27c-.23-3.062-2.063-2.863-4.546.495-2.961 4.005-3.784 8.717-1.665 9.53.856.329 1.26 1.077.898 1.663-.42.678-.024.821 1.087.395.96-.369 2.354-.67 3.097-.67zm-16.085-21.112c-1.008-1.633-2.43-.91-2.43 1.235 0 1.767.25 1.915 1.49.887.818-.68 1.242-1.635.94-2.122zm5.674.817c-1.283-1.284-2.585-.292-1.635 1.246.368.595 1.128.8 1.688.453.683-.422.665-.981-.053-1.7zm61.896-4.763c0-.518-.45-.941-1-.941s-1 .702-1 1.559.45 1.28 1 .94c.55-.339 1-1.04 1-1.558zm-49-1.917c0-.498-.45-1.184-1-1.524-.55-.34-1 .083-1 .94 0 .858-.45 1.56-1 1.56s-1 .466-1 1.035c0 .702.644.69 2-.035 1.1-.589 2-1.478 2-1.976zm-132.196-4.024c.22-2.902-1.052-4.025-2.29-2.02-.507.818 1.008 5.02 1.809 5.02.139 0 .355-1.35.48-3zm171.058-6.333c.827-.997.774-1.334-.21-1.334-.725 0-1.318.6-1.318 1.334 0 .733.095 1.333.21 1.333.117 0 .71-.6 1.318-1.333zm-51.303-9.228c-2.917-2.163-3.505-1.757-2.254 1.557 1.021 2.706 1.28 2.845 2.663 1.44 1.378-1.401 1.337-1.704-.409-2.997zm30.17.957c-.332-.333-1.194-.368-1.916-.08-.798.32-.56.557.604.605 1.054.043 1.645-.193 1.313-.525zm-36.229-1.396c.34-.55.168-1-.382-1s-1.278.45-1.618 1c-.34.55-.168 1 .382 1s1.279-.45 1.618-1zm-9.48-4.524c1.839-2.215.793-2.47-1.27-.31-.962 1.009-1.355 1.834-.872 1.834s1.447-.686 2.142-1.524zm56.965-4.726c-.012-1.757-.217-1.932-.934-.798-.505.799-.697 1.811-.426 2.25.868 1.404 1.376.861 1.36-1.452zm-56.485.25c-.34-.55-1.068-1-1.618-1s-.721.45-.382 1c.34.55 1.068 1 1.618 1s.722-.45.382-1zm59.371-6c.232-5.077-1.178-6.758-2.41-2.875-.402 1.265-.184 2.428.54 2.875.722.447.94 1.61.539 2.875-.37 1.169-.274 2.125.214 2.125.49 0 .992-2.25 1.117-5zm-58.87 0c0-.55-.477-1-1.06-1-.582 0-.78.45-.44 1s.816 1 1.058 1c.243 0 .441-.45.441-1zm-86.639-1.5c-.627-1.634-2.362-2.063-2.362-.583 0 .759.701 1.275 2.719 2.004.12.043-.04-.596-.357-1.421zm144.936-8.468c-.591-2.263-3.298-4.9-3.298-3.214 0 .585.45 1.342 1 1.682.55.34 1 1.518 1 2.618 0 1.1.408 1.748.907 1.44.498-.308.674-1.445.391-2.526zm-159.798-5.032c-.34-.55-1.829-.947-3.309-.882l-2.69.119 3 .763c1.65.42 3.138.817 3.308.882.17.065.031-.332-.309-.882zm-6.5-2c0-.55-.45-1-1-1s-1 .45-1 1 .45 1 1 1 1-.45 1-1zm83.458-.931c.316-.512.193-1.167-.275-1.456-.467-.289-.85.13-.85.93 0 1.687.316 1.834 1.125.526zm8.042-2.07c-1.1-.472-1.382-.89-.627-.929 1.001-.051 1.085-.417.308-1.352-1.254-1.511-9.507-1.054-8.562.474.334.54 1.456.76 2.494.489 1.038-.272 1.887-.119 1.887.34 0 .86 2.377 1.713 5 1.793.904.027.705-.297-.5-.814zm-93.25-6.661c-.687-.278-1.812-.278-2.5 0-.687.277-.125.504 1.25.504s1.938-.227 1.25-.504zm-3.52-1.942c-.333-.333-1.195-.368-1.917-.08-.798.32-.56.557.604.605 1.054.043 1.645-.193 1.313-.525zm-3.303-2.445c-2.235-.812-2.887-.505-1.995.939.348.562 1.373.739 2.277.391 1.446-.554 1.412-.715-.282-1.33zm4.919-9.494c-.326-.849-.807-1.329-1.07-1.067-.261.262-.18.957.183 1.543.986 1.596 1.563 1.286.887-.476zm-8.346-1.457c0-.55-.198-1-.44-1-.243 0-.72.45-1.06 1-.34.55-.141 1 .441 1 .583 0 1.06-.45 1.06-1zm6-.167c0-.458-.675-.833-1.5-.833s-1.5.375-1.5.833c0 .459.675.834 1.5.834s1.5-.375 1.5-.834zm-3-3.833c0-.55-.198-1-.44-1-.243 0-.72.45-1.06 1-.34.55-.141 1 .441 1 .583 0 1.06-.45 1.06-1zm-4-5.441c0-.243-.45-.72-1-1.06-.55-.339-1-.14-1 .442 0 .582.45 1.059 1 1.059s1-.198 1-.441zm8.25-9.221c-.687-.278-1.812-.278-2.5 0-.687.277-.125.504 1.25.504s1.938-.227 1.25-.504zm11.48-1.942c-.333-.333-1.195-.368-1.917-.08-.798.32-.56.557.604.605 1.054.043 1.645-.193 1.313-.525zm5-2c-.333-.333-1.195-.368-1.917-.08-.798.32-.56.557.604.605 1.054.043 1.645-.193 1.313-.525zm20.72-4.284c-1.548-1.446-5.45-2.34-5.45-1.249 0 .86 1.603 1.45 5.45 2 .6.087.6-.19 0-.75zm53.55 310.329c0-.858.458-1.276 1.017-.931.559.345.757 1.047.44 1.559-.857 1.387-1.457 1.128-1.457-.628zm-166.5-2.441c.996-1.1 2.035-2 2.31-2 .275 0-.314.9-1.31 2-.995 1.1-2.035 2-2.31 2-.275 0 .315-.9 1.31-2zm45.857 1.298c-.63-.217-.908-1.296-.62-2.398.613-2.345 4.372-2.27 5.011.1.355 1.315.278 1.318-.62.024-.866-1.247-1.15-1.155-1.826.596-.441 1.14-1.316 1.895-1.945 1.678zm118.643-3.798c0-.825.45-1.5 1-1.5s1 .675 1 1.5-.45 1.5-1 1.5-1-.675-1-1.5zm4 .44c0-.582.45-.78 1-.44s1 .816 1 1.059-.45.44-1 .44-1-.476-1-1.058zm-115.662-2.94c.587-1.375 1.14-2.627 1.23-2.781.089-.155 1.027-.448 2.085-.652 1.626-.313 1.866.117 1.555 2.781-.314 2.693-.773 3.152-3.152 3.152-2.588 0-2.71-.176-1.718-2.5zm3.662-2c0-.55-.198-1-.44-1-.243 0-.72.45-1.06 1-.34.55-.141 1 .441 1 .583 0 1.06-.45 1.06-1zm46.338 2c.587-1.375 1.14-2.627 1.23-2.781.089-.155 1.027-.448 2.085-.652 1.626-.313 1.866.117 1.555 2.781-.314 2.693-.773 3.152-3.152 3.152-2.588 0-2.71-.176-1.718-2.5zm3.662-2c0-.55-.198-1-.44-1-.243 0-.72.45-1.06 1-.34.55-.141 1 .441 1 .583 0 1.06-.45 1.06-1zm119.477 1.605c-.907-1.384-1.359-2.987-1.004-3.561.968-1.565 4.509-1.257 5.164.45.315.822.97 1.25 1.455.95.504-.312.518.44.032 1.755-1.184 3.209-3.692 3.39-5.647.406zm-218.477.017c0-.207.788-.995 1.75-1.75 1.586-1.243 1.622-1.208.378.378-1.306 1.666-2.128 2.195-2.128 1.372zm128.505-.614c-.521-.844-.424-1.076.272-.646.597.369 1.368.213 1.713-.346.346-.559.125-1.016-.49-1.016-.614 0-.84-.45-.5-1 .34-.55.142-1-.44-1-.583 0-1.053-.788-1.044-1.75.011-1.34.213-1.438.861-.416.634 1.001 1.02.75 1.543-1 .671-2.248.729-2.26 1.568-.334 1.316 3.019 1.183 4.068-.828 6.551-1.418 1.751-2.028 1.97-2.655.957zm39.053.085c-.308-.499.34-.671 1.441-.383 2.335.61 2.63 1.29.56 1.29-.792 0-1.693-.408-2-.907zm23.442-.124c0-.533.675-.97 1.5-.97s1.5.178 1.5.394c0 .216-.675.652-1.5.969-.825.316-1.5.14-1.5-.393zm-7.41-.825c-.291-.47.582-.643 1.94-.383 1.359.26 2.47.645 2.47.856 0 .773-3.898.356-4.41-.473zm86.446-1.078c-1.77-3.306-1.255-7.878 1.023-9.097 4.717-2.525 10.602 1.788 9.29 6.808-1.029 3.932-8.542 5.6-10.313 2.289zm-96.541-1.293c-1.165-2.65-4.345-3.554-5.7-1.621-.762 1.084-.868 1.055-.544-.152.66-2.456 5.433-2.46 6.747-.004.623 1.163.988 2.548.812 3.077-.177.528-.768-.056-1.315-1.3zm-169.416-2.356c.048-1.165.285-1.402.605-.605.288.722.253 1.585-.08 1.917-.332.332-.568-.258-.525-1.312zm184 0c.048-1.165.285-1.402.605-.605.288.722.253 1.585-.08 1.917-.332.332-.568-.258-.525-1.312zm-150.085-1.417c-.103-1.375-.125-4.075-.05-6 .191-4.863-3.771-12.309-6.93-13.022-3.92-.886-8.219.044-7.605 1.644.811 2.114-1.865 1.636-3.99-.712-1.857-2.052-1.856-2.117.036-3.5 1.06-.776 2.274-1.41 2.698-1.41.424 0 1.28-1.913 1.902-4.25.622-2.338 1.748-4.942 2.5-5.787 1.585-1.778.896-5.576-1.153-6.362-2.073-.796-1.643-3.718 1.03-6.986 1.895-2.318 2.87-2.756 4.963-2.23 1.931.484 2.605 1.295 2.605 3.134 0 2.464-2.554 5.832-5.055 6.666-2.084.695-.345 3.732 1.814 3.168 2.928-.766 4.196 1.72 5.76 11.293.797 4.87 1.938 11.368 2.536 14.44.732 3.759.767 6.702.107 9-.868 3.019-1.003 3.125-1.168.914zm176.506 0c.34-.55.817-1 1.06-1 .242 0 .44.45.44 1s-.476 1-1.059 1c-.582 0-.78-.45-.44-1zm-210.384-2.715c-.222-4.245-6.693-5.707-10.116-2.285-1.1 1.1-2 1.575-2 1.057 0-1.473 4.211-4.057 6.612-4.057 3.176 0 6.712 3.208 6.116 5.55-.442 1.74-.508 1.711-.612-.265zm87.498.532c.288-.467.944-.59 1.456-.274 1.308.808 1.16 1.124-.526 1.124-.8 0-1.22-.383-.93-.85zm81.088.55c-.386-.385-.702-1.525-.702-2.534 0-1.269.693-1.797 2.25-1.717 1.694.087 1.817.23.5.573-.962.252-1.75 1.1-1.75 1.884 0 1.634 2.578 1.944 3.342.402.28-.564.392-.451.25.25-.293 1.45-2.836 2.198-3.89 1.143zm41.863-2.074c-.543-1.425-.428-1.54.56-.56.683.679.99 1.486.682 1.793-.308.308-.867-.247-1.242-1.233zm-46.565-.793c0-.825.45-1.5 1-1.5s1 .675 1 1.5-.45 1.5-1 1.5-1-.675-1-1.5zm-108.648-1.027c-.66-1.717 1.058-3.43 3.468-3.458 1.984-.023.995 4.405-1.073 4.799-.964.183-2.042-.42-2.395-1.341zm256.343-1.005c-1.544-1.357-2.41-2.468-1.925-2.468.485 0 1.939 1.125 3.23 2.5 2.989 3.181 2.328 3.165-1.305-.032zm-376.882.849c.722-.289 1.584-.254 1.917.079.332.332-.259.568-1.313.525-1.165-.048-1.402-.285-.604-.604zm329.187-.317c0-.55-1.098-1-2.44-1-1.343 0-2.733-.472-3.09-1.049-.445-.72-1.075-.694-2.015.086-.752.625-1.806.864-2.342.533-.536-.332-1.258-.144-1.604.416-.414.67-1.251.687-2.438.052-.994-.532-2.19-.646-2.656-.253-.467.393-.246-.073.49-1.035.738-.963 1.912-1.75 2.61-1.75 1.543 0 2.727-2.497 3.037-6.399.126-1.594.956-3.306 1.845-3.803 1.103-.617 1.424-1.666 1.012-3.307l-.603-2.404 4.035 1.95c3.682 1.779 4.089 2.365 4.65 6.706a831.07 831.07 0 0 0 1.15 8.507c.337 2.363.133 3.75-.553 3.75-.598 0-1.088-.45-1.088-1zm34-1c-.9-.583-1.024-.976-.309-.985.655-.008 1.47.435 1.81.985.767 1.241.42 1.241-1.5 0zm-140-1.918c0-.505-.301-1.704-.67-2.664-.42-1.098-.28-1.505.38-1.098 1.382.855 2.36 4.68 1.197 4.68a.915.915 0 0 1-.907-.918zm46-1.069c0-2.78 4.683-5.764 6.302-4.015.842.91.853 1.102.039.645-1.522-.853-4.88.406-3.446 1.292.67.414.332 1.282-.916 2.351-1.875 1.606-1.979 1.591-1.979-.273zm-322.409-2.39c.963-2.509 14.606-8.636 14.154-6.356-.368 1.855-3.98 3.705-6.245 3.198-1.1-.245-1.437-.188-.75.128.688.315 1.25 1.136 1.25 1.824 0 .687-.562 1.326-1.25 1.42-6.571.897-7.573.867-7.159-.213zm50.922.398c-.392-.635-.555-1.252-.363-1.37.193-.12 1.027-.727 1.853-1.351 2.934-2.214 11.998-5.328 11.742-4.033-.368 1.855-3.98 3.705-6.245 3.198-1.1-.245-1.437-.188-.75.128.688.315 1.25 1.136 1.25 1.824 0 .687-.562 1.292-1.25 1.344-.687.052-2.211.39-3.387.754-1.226.378-2.44.168-2.85-.494zm181.237.273c1.238-.238 3.263-.238 4.5 0 1.238.239.225.434-2.25.434s-3.487-.195-2.25-.434zm-164.77-1.818c-.695-.839-1.088-1.644-.872-1.79.216-.145 3.569-3.03 7.45-6.408 7.407-6.447 12.442-8.83 12.442-5.886 0 .884-.338 1.608-.751 1.608s-4.061 3.15-8.107 7c-4.046 3.85-7.703 7-8.126 7-.424 0-1.34-.686-2.036-1.524zm334.52-1.476c-.995-1.1-1.306-2-.69-2 .616 0 1.602.9 2.19 2 .59 1.1.9 2 .69 2-.209 0-1.194-.9-2.19-2zm-218.536-2.037c-1.12-1.12-1.723-2.543-1.34-3.162.46-.744 1.319-.356 2.536 1.147 3.174 3.92 2.256 5.468-1.196 2.015zm13.179.006c-1.511-1.258-2.13-2.557-1.724-3.616.558-1.454.93-1.374 3.108.672 2.353 2.21 3.33 5.013 1.723 4.942-.412-.018-1.81-.917-3.107-1.998zm201.857-2.97c-.588-1.1-1.982-2-3.097-2-2.911 0-12.269-3.15-13.137-4.422-.404-.592-.706-1.527-.671-2.077.035-.55.283-.46.55.198.367.903 1.09.925 2.922.09 2.456-1.12 3.384-3.788 1.317-3.788-.65 0-.918-1.038-.642-2.485.383-2.003-.178-2.87-2.899-4.475-3.5-2.065-5.69-5.973-4.737-8.454 1.147-2.99 3.526-2.533 7.406 1.426 3.302 3.368 4.547 3.988 8.015 3.988 5.3 0 7.973-1.48 7.973-4.413 0-3.158-1.28-4.017-9.709-6.513-12.057-3.57-15.708-8.5-11.838-15.983 2.275-4.398 10.324-6.825 17.38-5.24 3.492.785 4.167.687 4.167-.605 0-1.327 1.32-1.448 9.5-.873l9.5.667v-4.82c0-5.31 1.235-7.22 4.665-7.22 2.928 0 4.335 2.737 4.335 8.434 0 3.608.353 4.566 1.68 4.566.923 0 3.106.516 4.852 1.147 3.108 1.124 3.135 1.187 1.29 3.032-1.036 1.036-3.22 2.15-4.853 2.477-2.96.592-2.969.614-2.969 7.769 0 4.355.492 7.704 1.25 8.522 1.006 1.083.993 1.2-.066.6-1.01-.573-1.243.15-1 3.103.312 3.792.384 3.855 4.8 4.169 7.129.507 7.734 4.286 1.01 6.301-5.142 1.54-10.44.398-12.95-2.792-1.808-2.298-2.044-4.025-2.044-14.963 0-10.178-.258-12.365-1.46-12.365-.804 0-2.267-.842-3.25-1.872-.985-1.03-3.965-2.188-6.624-2.574l-4.835-.702 2.242 3.032c1.861 2.518 2.025 3.294.962 4.574-1.887 2.273-3.865 1.898-7.687-1.458-4.993-4.384-13.348-3.75-13.348 1.012 0 2.507 3.188 4.46 9.75 5.975 9.363 2.162 14.705 7.378 13.56 13.238-.693 3.54-4.95 7.753-8.566 8.476-1.957.392-2.679 1.025-2.298 2.017.305.795.554 2.542.554 3.883 0 2.1.346 2.35 2.5 1.81 3.327-.835 3.194.73-.411 4.836-2.228 2.537-2.686 3.72-1.95 5.035.528.945.73 1.718.446 1.718-.283 0-.996-.9-1.585-2zm-300 .08c0-.507 3.226-3.77 7.168-7.25 3.942-3.481 8.8-7.904 10.797-9.83 3.406-3.284 9.918-8.593 28.185-22.976 4.207-3.313 8.182-6.023 8.833-6.023 2.242 0 .361 2.443-4.528 5.883-6.823 4.799-33.966 27.308-43.811 36.33-5.15 4.72-6.644 5.59-6.644 3.866zm311.345-4.612c-.647-1.38-.743-2.467-.22-2.467 1.112 0 2.21 2.512 1.72 3.934-.19.55-.865-.11-1.5-1.467zm-283.345-.967c0-.825.45-1.5 1-1.5s1 .675 1 1.5-.45 1.5-1 1.5-1-.675-1-1.5zm-23-11.083c-1.68-.933-1.967-1.392-.872-1.402.895-.008 2.188.66 2.872 1.485 1.46 1.76 1.31 1.753-2-.083zm348.094-.723c-6.31-2.211-7.47-5.091-7.924-19.668-.34-10.896-.66-12.993-2.036-13.36-1.09-.29-.884-.473.616-.55 1.238-.064 2.25-.55 2.25-1.08 0-1.798 3.867-3.178 5.881-2.1 1.66.889 1.93 2.552 2.29 14.157.384 12.298.56 13.271 2.73 15.028 3.327 2.693 6.795 2.338 10.176-1.044 2.865-2.865 2.923-3.136 2.923-13.566 0-5.853.438-11.46.973-12.46 1.458-2.724 4.067-3.325 6.172-1.42 1.662 1.504 1.855 3.372 1.855 17.953 0 13.46-.271 16.545-1.571 17.845-1.86 1.859-1.993 1.875-4.494.536-1.137-.609-1.935-2.088-1.935-3.59v-2.553l-3.03 2.55c-1.668 1.403-4.705 3.016-6.75 3.584-4.39 1.219-3.849 1.236-8.126-.262zm44.357-.048c-11.196-5.069-13.928-22.699-5.022-32.416 2.916-3.183 3.938-3.628 9.177-3.997 5.092-.359 6.41-.062 9.689 2.176 2.087 1.425 3.982 2.591 4.212 2.591.23 0 .548-4.115.706-9.144.233-7.419.618-9.352 2.037-10.245 1.274-.801 2.227-.8 3.5.002 1.578.994 1.777 3.539 2.018 25.758l.267 24.655-2.487 1.134c-2.926 1.334-5.548-.218-5.548-3.282 0-2.453-.478-2.378-4.529.712-4.067 3.102-9.84 3.948-14.02 2.056zm14.122-7.955c3.208-2.76 4.364-10.322 2.46-16.092-2.646-8.02-12.87-8.676-16.484-1.06-2.844 5.994-1.175 15.839 3.108 18.328 3.144 1.828 8.037 1.3 10.916-1.176zm23.984 7.086c-1.232-1.758-1.557-5.19-1.557-16.434 0-7.817.416-15.306.924-16.642 1.131-2.976 3.581-4.036 6.149-2.662 1.79.958 1.927 2.273 1.927 18.46 0 16.21-.135 17.503-1.934 18.466-2.81 1.504-3.768 1.298-5.509-1.188zm27.45.691c-9.533-4.3-13.607-13.45-10.599-23.8 2.485-8.547 8.555-13.001 17.716-13.001 14.561 0 23.18 14.259 16.933 28.017-3.708 8.166-15.705 12.549-24.05 8.784zm14.006-7.982c4.765-5.072 3.539-18.515-1.957-21.456-3.157-1.69-8.485-1.21-10.83.974-4.736 4.413-5.093 15.69-.647 20.486 3.29 3.55 10.097 3.548 13.434-.004zm-468.013 5.014c0-.825.189-1.5.419-1.5.23 0 1.13-.273 2-.607 1.009-.387 1.581-.064 1.581.893 0 .825-.711 1.773-1.581 2.107-2.235.858-2.419.79-2.419-.893zm264.38-2.952c-1.319-3.438 2.811-4.928 4.567-1.648.779 1.456.651 2.04-.547 2.5-2.428.932-3.415.723-4.02-.852zm-20.065-4.298c-.343-.963-.802-2.082-1.02-2.489-.22-.406.254-.488 1.052-.181.798.306 1.748.076 2.111-.512 1-1.617 2.25-1.298 4.537 1.157 1.945 2.087 1.963 2.269.29 2.93-3.262 1.288-6.332.89-6.97-.905zm15.685-2.75c0-.825.45-1.5 1-1.5s1 .675 1 1.5-.45 1.5-1 1.5-1-.675-1-1.5zm-235-6c0-.825.45-1.5 1-1.5s1 .675 1 1.5-.45 1.5-1 1.5-1-.675-1-1.5zm229 .073c0-.927.855-1.573 2.084-1.573 2.437 0 2.092 2.337-.416 2.823-.987.192-1.668-.318-1.668-1.25zm-276.8-15.773c-1.439-1.44-1.585-3.8-.235-3.8.891 0 3.035 3.132 3.035 4.434 0 .97-1.545.62-2.8-.634zm8.36-7.383c-2.573-2.574-.538-3.758 4.245-2.47 2.746.74 5.449.781 8.35.13 5.905-1.327 5.997-.606.16 1.25-8.572 2.727-10.917 2.927-12.755 1.09zm441.012-1.988c-1.86-1.86-1.875-1.993-.536-4.495 1.789-3.343 7.964-2.201 7.964 1.473 0 4.297-4.374 6.076-7.428 3.022zm-422.572-1.535c0-.492.69-.894 1.532-.894.842 0 1.795-.687 2.117-1.526.403-1.05.955-1.218 1.773-.539.792.658 3.006.503 6.634-.462 8.002-2.13 9.52-1.642 1.944.625-9.972 2.985-14 3.79-14 2.796zm325.5-5.798c-9.735-2.958-13.5-4.651-13.5-6.072 0-1.852 2.033-2.059 5.026-.51 1.696.876 6.997 2.595 11.78 3.818 5.933 1.518 8.694 2.687 8.694 3.682 0 2.227-2.203 2.058-12-.918zm-19.861-3.596c-.35-.914-.002-1.5.893-1.5.808 0 1.468.675 1.468 1.5s-.401 1.5-.893 1.5c-.49 0-1.152-.675-1.468-1.5zm-317.639-.812c0-.91 1.55-1.685 4.25-2.125 4.462-.727 23.114-2.648 28.25-2.91 3.507-.179 4.669 1.722 1.29 2.11-1.26.145-4.99.906-8.29 1.69-3.3.786-10.387 1.707-15.75 2.048-8.084.514-9.75.375-9.75-.813zm358-1.688c-.9-.583-1.024-.976-.309-.985.655-.008 1.47.435 1.81.985.767 1.241.42 1.241-1.5 0zm-342.5-4c-.399-.646-.275-1.624.275-2.174.666-.667 1.242-.609 1.725.174.4.646.276 1.624-.274 2.174-.667.667-1.242.609-1.726-.174zm264.269-2.906c1.148-3.126 4.231-3.6 4.231-.652 0 .729-1.083 1.532-2.408 1.785-1.882.36-2.28.112-1.823-1.133zm-242.172.062c-.346-.56-.142-1.32.454-1.687 1.537-.95 2.53.351 1.246 1.635-.719.718-1.278.735-1.7.052zm314.403-3.156c-.9-.583-1.024-.976-.309-.985.655-.008 1.47.435 1.81.985.767 1.241.42 1.241-1.5 0zm-67.85-1.95c.22-.66.727-1.166 1.125-1.125 1.196.124.965 1.495-.325 1.925-.66.22-1.02-.14-.8-.8zm-17.15-1.05c-.9-.583-1.024-.976-.309-.985.655-.008 1.47.435 1.81.985.767 1.241.42 1.241-1.5 0zm7.01.006c-1.072-.663-1.118-1.171-.204-2.272.647-.78.937-1.659.643-1.953-.294-.294.183-.81 1.06-1.147.93-.356 1.339-.197.98.384-.338.548.088 1.266.948 1.596.86.33 1.563.986 1.563 1.457 0 1.473-3.525 2.84-4.99 1.935zm-263.51-5.006c-.34-.55-.141-1 .441-1 .583 0 1.06.45 1.06 1s-.199 1-.442 1c-.242 0-.719-.45-1.059-1zm20.5-1.72c-1.375-.248-2.95-.893-3.5-1.435-1.256-1.24 4.57.019 5.95 1.284.523.479.748.81.5.735-.247-.075-1.575-.338-2.95-.585zm263.19-2.03c.186-.963 1-1.75 1.81-1.75s1.625.787 1.81 1.75c.237 1.228-.303 1.75-1.81 1.75-1.506 0-2.046-.522-1.81-1.75zm28.304.669c-1.097-.428-1.446-.81-.776-.849.823-.047.96-.77.42-2.23-.964-2.603-.29-6.84 1.086-6.84.545 0 .774-.565.509-1.255s.587-2.062 1.893-3.047c2.306-1.74 2.374-1.734 2.374.224 0 1.462-.48 1.864-1.75 1.465-1.666-.524-1.666-.482 0 .892.963.793 1.75 1.954 1.75 2.581s.478 1.14 1.06 1.14c.612 0 .93 1.56.75 3.684-.249 2.962-.8 3.814-2.816 4.348-1.379.366-3.404.315-4.5-.113zm51.319-1.602c.722-.289 1.584-.254 1.917.079.332.332-.259.568-1.313.525-1.165-.048-1.402-.285-.604-.604zm-365.658-1.755c.19-.917.795-1.644 1.345-1.615 1.485.079 1.212 2.316-.345 2.835-.841.28-1.216-.177-1-1.22zm361.658.755c.722-.289 1.584-.254 1.917.079.332.332-.259.568-1.313.525-1.165-.048-1.402-.285-.604-.604zm-333.739-1.728c-3.166-3.816-1.884-13.337 1.426-10.59.87.723 1.615.568 2.522-.525 1.135-1.368 1.505-1.222 3.126 1.237 2.47 3.746 2.43 8.91-.082 10.254-2.702 1.446-5.61 1.29-6.992-.376zm260.517-3.214c-.848-2.21 1.72-4.854 3.902-4.016 1.015.39 1.525 1.498 1.328 2.886-.4 2.809-4.265 3.644-5.23 1.13zm-289.59-1.375c0-.55.45-1 1-1s1 .45 1 1-.45 1-1 1-1-.45-1-1zm-50.75-.662c-1.431-.578-1.7-2.338-.358-2.338.492 0 1.152.675 1.47 1.5.316.825.476 1.464.356 1.421a95.55 95.55 0 0 1-1.469-.583zm65.25-1.338c.34-.55.816-1 1.058-1 .243 0 .441.45.441 1s-.476 1-1.059 1c-.582 0-.78-.45-.44-1zm-45.306-2.5c.02-1.65.245-2.204.498-1.231.254.973.237 2.323-.037 3-.274.677-.481-.12-.46-1.77zm71.005-.7c-1.73-1.73-1.475-2.934.55-2.594 2.025.34 3.34 1.84 2.625 2.996-.697 1.128-1.782.99-3.175-.402zm-90.85-3.33c-.352-.92-.076-2.021.615-2.448 1.954-1.208 5.171.031 4.824 1.857-.428 2.248-4.628 2.704-5.439.59zm18.808-1.47c0-1.375.227-1.938.505-1.25.277.687.277 1.812 0 2.5-.278.687-.505.125-.505-1.25zm24.842 1c0-.55.45-1 1-1s1 .45 1 1-.45 1-1 1-1-.45-1-1zm305.5-.553c-2.2-.712-3.212-1.328-2.25-1.37 1.007-.044 1.75-.86 1.75-1.922 0-2.408 3.088-5.155 5.794-5.155 2.441 0 4.491 3.094 3.596 5.428-.36.935-.074 1.572.703 1.572 2.054 0-.258 1.675-3.093 2.24-1.375.275-4.3-.082-6.5-.793zm-358.967-.394c-.88-1.423.242-3.053 2.1-3.053.876 0 1.378.703 1.19 1.667-.389 2.009-2.385 2.85-3.29 1.386zm378.28-.736c.722-.289 1.584-.254 1.917.079.332.332-.259.568-1.313.525-1.165-.048-1.402-.285-.604-.604zm20.313 0c-.07-.65-1.07-1.482-2.223-1.848-1.556-.494-1.981-1.278-1.645-3.037.25-1.304.069-2.134-.402-1.843-.47.291-.856.038-.856-.561 0-.6.675-1.35 1.5-1.666.825-.317 1.5-1.637 1.5-2.934 0-2.375 2.52-4.428 5.435-4.428 2.032 0 1.987 2.3-.123 6.3-.93 1.76-1.998 5-2.375 7.2-.378 2.2-.743 3.468-.811 2.817zm-371.585-4.19c-.397-1.25-1.203-1.81-2.104-1.464-.804.308-2.06.064-2.791-.543-.731-.606-1.623-.809-1.982-.45-.978.978-7.664 1.068-7.664.103 0-.46.788-1.126 1.75-1.481 2.284-.843 3.216-2.283 3.235-4.997.009-1.212 1.164-3.353 2.568-4.757 4.062-4.062 5.903-2.24 7.22 7.146 1.086 7.743.994 10.306-.232 6.442zm28.46-1.127c-.902-.583-1.025-.976-.31-.985.655-.008 1.47.435 1.81.985.767 1.241.42 1.241-1.5 0zm-56.361-.694c-1.126-1.126-.686-2.306.86-2.306.825 0 1.5.423 1.5.94 0 1.262-1.561 2.165-2.36 1.366zm41.82-9.131c-1.26-2.342-2.698-3.675-3.968-3.675-1.095 0-2.442-.285-2.992-.632-.55-.348-2.462-.947-4.25-1.33-3.934-.844-4.114-1.823-.626-3.412 2.464-1.123 2.523-1.307.975-3.017-1.425-1.574-1.453-1.985-.213-3.014.79-.656 2.96-1.44 4.822-1.741 3.785-.614 6.292 1.401 6.292 5.058 0 1.591.535 2.014 2.25 1.775 2.949-.41 2.84.588-.437 4.009l-2.688 2.805 2.178 2.946c1.198 1.62 1.83 3.162 1.406 3.424-.426.263-1.663-1.175-2.75-3.196zm-5.46 1.825c0-.55.45-1 1-1s1 .45 1 1-.45 1-1 1-1-.45-1-1zm23-1c0-.55.424-1 .941-1 .518 0 1.22.45 1.56 1 .34.55-.084 1-.942 1-.857 0-1.559-.45-1.559-1zm279-2c0-.55.45-1 1-1s1 .45 1 1-.45 1-1 1-1-.45-1-1zm25.25-.716c3.236-.49 5.16-3.515 4.333-6.81-.657-2.62-3.563-3.933-6.583-2.974-3.087.98-2.364 2.523.88 1.874 1.707-.341 3.171-.1 3.6.592 1.015 1.643-.278 2.635-1.65 1.264-1.214-1.215-4.617.002-6.064 2.17-.435.65-.741.27-.75-.928-.042-5.56 6.74-8.609 10.33-4.643 3.4 3.757.693 10.29-4.152 10.021l-2.694-.15 2.75-.416zm-313-1.946c-1.758-.71-1.561-3.338.25-3.338.834 0 1.5.889 1.5 2 0 1.1-.112 1.964-.25 1.921a42.475 42.475 0 0 1-1.5-.583zm-31.963-6.034c-.265-.689.238-1.971 1.116-2.85.879-.878 1.597-2.046 1.597-2.595 0-1.775 4.469-.42 4.828 1.465.737 3.868-6.183 7.52-7.541 3.98zm329.002-2.54l-2.071-3.51 3.053-2.679c2.684-2.355 3.231-2.502 4.521-1.212 1.74 1.74 1.071 5.35-1.6 8.648l-1.832 2.263-2.071-3.51zm-14.539-.426c.688-.278 1.813-.278 2.5 0 .688.277.125.504-1.25.504s-1.937-.227-1.25-.504zm23.917-2.005c-1.33-1.33-.588-2.193 3.65-4.244 5.285-2.559 5.683-2.573 5.683-.204 0 3.2-7.166 6.615-9.333 4.448zm-345.124-1.264c-.683-1.105.895-2.299 1.818-1.375.95.95.774 2.306-.302 2.306-.517 0-1.2-.419-1.516-.931zm358.457-.16c-1.375-.39-1.946-.755-1.269-.81.677-.054 1.516-1.235 1.865-2.622.348-1.388 1.594-3.2 2.769-4.029 1.829-1.288 1.92-1.647.635-2.5-.825-.547-2.512-.822-3.75-.61-1.237.211-2.25-.062-2.25-.608 0-.59 1.52-.74 3.75-.372 2.063.341 4.24.625 4.836.63.598.007 1.159 1.852 1.247 4.101.088 2.25.473 4.612.856 5.25.443.74.127.701-.87-.106-1.728-1.4-4.533-.75-5.012 1.161-.202.805-1.162.981-2.807.515zm-2.5-7.91c.34-.55.817-1 1.06-1 .242 0 .44.45.44 1s-.476 1-1.059 1c-.582 0-.78-.45-.44-1zm-2.744-4.5c-.263-1.374-.09-2.5.383-2.5.474 0 .861 1.126.861 2.5 0 1.376-.172 2.5-.383 2.5-.21 0-.598-1.124-.861-2.5zm-311.756-2.426c0-.59.01-1.41.02-1.823.01-.413 1.103-1.04 2.428-1.395 2.138-.571 2.32-.402 1.618 1.5-.822 2.23-4.066 3.6-4.066 1.718zM6.846 260.56c.722-.289 1.584-.254 1.917.079.332.332-.259.568-1.313.525-1.165-.048-1.402-.285-.604-.604zm95.187-2.317c0-.55.45-1 1-1s1 .45 1 1-.45 1-1 1-1-.45-1-1zm291.26-4.581c.96-1.145 1.444-2.382 1.076-2.75-.368-.368-.048-.67.71-.67.759 0 2.317-1.175 3.463-2.612 1.201-1.507 2.831-2.459 3.852-2.25 1.633.335 1.61.533-.296 2.571-1.135 1.215-2.065 2.725-2.065 3.357 0 .658-.706.878-1.655.514-1.008-.387-2.668.256-4.243 1.643-2.177 1.917-2.31 1.948-.842.197zm-285.26-1.315c-2.035-.567-2.188-.816-.823-1.34.949-.365 2.196-.02 2.873.795.657.793 1.028 1.396.823 1.341a726.31 726.31 0 0 1-2.873-.796zm329.545-.032c-.63-1.018 2.127-6.065 3.32-6.08.35-.004 3.497-2.704 6.995-6 5.975-5.63 9.27-7.208 10.591-5.071.313.506-2.85 3.993-7.027 7.75-9.059 8.143-13.005 10.816-13.88 9.4zm-366.322-1.629c-3.759-2.632-2.287-7.443 2.277-7.443 4.393 0 6.313 5.96 2.566 7.965-2.431 1.301-2.206 1.325-4.843-.522zm23.777-3.443c0-.55.45-1 1-1s1 .45 1 1-.45 1-1 1-1-.45-1-1zm14-1c0-.55.477-1 1.06-1 .582 0 .78.45.44 1s-.816 1-1.059 1c-.242 0-.44-.45-.44-1zm8.15-.95c.43-1.29 1.802-1.52 1.925-.325.042.399-.465.905-1.125 1.125-.66.22-1.02-.14-.8-.8zm269.89-1.502c-.663-.799-.912-2.374-.555-3.5.846-2.664 5.078-2.734 6.484-.107.838 1.567.61 2.241-1.188 3.5-2.744 1.922-3.225 1.933-4.74.107zm-293.458-2.686c-1.388-2.782-1.42-3.452-.226-4.646 1.195-1.195 1.777-.987 4.04 1.444 3.045 3.272 3.024 5.705-.054 6.146-1.568.225-2.572-.56-3.76-2.944zm-47.582-2.862c0-.55.45-1 1-1s1 .45 1 1-.45 1-1 1-1-.45-1-1zm363.41-.376c-.848-2.208.28-3.335 1.807-1.807.902.902.906 1.46.016 2.35-.89.89-1.323.76-1.823-.543zm-377.41-3.624c0-.55.45-1 1-1s1 .45 1 1-.45 1-1 1-1-.45-1-1zm88.88-.645c-1.166-1.405-1.129-1.795.255-2.668 1.421-.896 1.266-1.32-1.257-3.444-3.214-2.704-3.742-4.482-1.199-4.037 2.988.523 8.034 6.846 7.537 9.445-.526 2.755-3.327 3.125-5.336.704zm263.72-.955c-.355-.927-.422-1.911-.147-2.186.275-.275.792.259 1.147 1.186.356.927.423 1.911.148 2.186-.275.275-.792-.259-1.148-1.186zm-184.6-.165c0-1.298 2.252-3.235 3.76-3.235.747 0 1.082.448.744.995-.885 1.43-4.504 3.231-4.504 2.24zm-85.5-1.235c-.34-.55-.141-1 .441-1 .583 0 1.06.45 1.06 1s-.199 1-.442 1c-.242 0-.719-.45-1.059-1zm276.67-1.161c.181-1.287 1.005-2.34 1.83-2.34 2.17 0 1.87 3.902-.33 4.326-1.42.274-1.758-.172-1.5-1.986zm-327.97-1.04c-3.052-3.052-.335-8.24 3.995-7.626 1.81.257 2.375 1.057 2.63 3.722.436 4.573-3.586 6.944-6.625 3.905zm43.26-1.866c-.99-1.599.118-2.202 2.597-1.415 1.725.547 1.906.892.826 1.576-1.833 1.16-2.63 1.123-3.424-.16zm84.207.4c-1.36-1.36-.6-3.425 1.583-4.302 1.238-.497 1.688-.933 1-.968-1.765-.09-1.63-6.98.152-7.664.77-.295 1.629-1.406 1.906-2.468.278-1.062 1.19-1.931 2.027-1.931 1.092 0 1.713 1.532 2.2 5.424.764 6.12.245 7.576-2.7 7.576-1.503 0-1.878.445-1.408 1.67.904 2.354-2.926 4.497-4.76 2.663zm260.523-1.081c.376-1.952 6.794-5.33 10.613-5.586 3.527-.236 3.888 2.098.526 3.404a80.573 80.573 0 0 0-5.66 2.514c-3.853 1.927-5.89 1.803-5.479-.332zm-247.729-1.209c2.179-2.407 2.678-2.567 1.93-.62-.3.782-1.273 1.701-2.162 2.043-1.328.51-1.286.255.232-1.423zm227.166.752c.27-.437-.21-.795-1.068-.795-1.967 0-2.052-2.874-.106-3.62.798-.307 2.036-.194 2.75.25.713.445 2.363.67 3.665.502 2.29-.296 2.314-.23.731 2.031-1.454 2.076-7.22 3.652-5.972 1.632zM82.21 224.69c.452-2.172 2.227-2.305 2.633-.197.21 1.095-.28 1.75-1.31 1.75-.96 0-1.512-.647-1.323-1.553zm94.053-.635c.618-1.854 2.77-2.161 2.77-.395 0 .87-.712 1.583-1.583 1.583-.87 0-1.405-.534-1.187-1.188zm32.77-1.312c0-.825.45-1.5 1-1.5s1 .675 1 1.5-.45 1.5-1 1.5-1-.675-1-1.5zm4.586.42c.503-.78.914-2.535.914-3.898 0-1.562.647-2.606 1.75-2.824 2.818-.555 2.128 3.98-.946 6.223-1.548 1.13-2.256 1.335-1.718.5zm116.914.08c-.34-.55-.141-1 .441-1 .583 0 1.06.45 1.06 1s-.199 1-.442 1c-.242 0-.719-.45-1.059-1zm49.5-3.441c0-.857.45-1.56 1-1.56s1 .424 1 .942c0 .517-.45 1.219-1 1.559-.55.34-1-.084-1-.941zm-270.457-.49c-.316-.512-.118-1.214.441-1.559.56-.345 1.016.073 1.016.93 0 1.757-.6 2.016-1.457.629zm98.92-3.185c-.504-1.589-.18-2.617 1.124-3.571 2.585-1.89 3.913-1.12 3.913 2.27 0 3.784-3.926 4.798-5.036 1.301zm-109.592-.134c-.07-.138-.204-1.5-.296-3.03-.13-2.159.176-2.63 1.379-2.114.85.366 2.446.622 3.546.571 2.427-.113 7.279 3.378 6.197 4.46-.425.425-2.106.27-3.735-.345-1.637-.618-2.962-.71-2.962-.205 0 .778-3.758 1.381-4.129.663zm15.769-.444c-1.126-1.126-.686-2.306.86-2.306.825 0 1.5.423 1.5.94 0 1.262-1.561 2.165-2.36 1.366zm7.242-.556a13.528 13.528 0 0 1 .044-2.5c.089-.688-.289-1.25-.84-1.25-.55 0-.873-1.629-.716-3.62.219-2.777-.281-4.144-2.149-5.876-3.473-3.221-2.319-6.504 2.288-6.504 3.677 0 4.38.65 5.122 4.745.27 1.492.88 2.952 1.353 3.245.474.293.53 2.102.127 4.021-.57 2.708-1.169 3.418-2.673 3.172-1.699-.279-1.654-.113.36 1.34 1.823 1.315 2.056 1.949 1.128 3.067-1.45 1.746-3.885 1.842-4.044.16zm340.118-.25c0-.825.45-1.5 1-1.5s1 .675 1 1.5-.45 1.5-1 1.5-1-.675-1-1.5zm-416.688-.75c-1.808-2.42-.883-4.243 2.31-4.554 2.197-.214 3.314.195 3.768 1.377 1.297 3.379-3.899 6.095-6.078 3.177zm134.688-.81c0-.582.45-.78 1-.44s1 .816 1 1.059-.45.44-1 .44-1-.476-1-1.058zm214.237-3.619c.191-3.502.674-4.821 1.763-4.821.96 0 1.415.81 1.262 2.25-.13 1.237.238 2.25.82 2.25 2.163 0 .442 4.497-1.845 4.821-2.112.3-2.245 0-2-4.5zm-202.737 2.679c-.34-.55-.141-1 .441-1 .583 0 1.06.45 1.06 1s-.199 1-.442 1c-.242 0-.719-.45-1.059-1zm10 0c.34-.55.817-1 1.06-1 .242 0 .44.45.44 1s-.476 1-1.059 1c-.582 0-.78-.45-.44-1zm-92.967-.947c-.88-1.423.242-3.053 2.1-3.053.876 0 1.378.703 1.19 1.667-.389 2.009-2.385 2.85-3.29 1.386zm217.803-.62c-.721-1.881 1.048-3.932 2.577-2.987 1.649 1.019 1.304 4.554-.444 4.554-.842 0-1.802-.705-2.133-1.567zm-195.096-.264c-.938-.595-.617-1.405 1.25-3.159 1.38-1.297 2.517-1.943 2.524-1.434.008.508.285 1.936.617 3.174.468 1.748.186 2.247-1.264 2.235-1.027-.008-2.434-.376-3.127-.816zm-58.74-2.546a436.507 436.507 0 0 0-8-3.595c-1.65-.71-2.487-1.477-1.861-1.705 1.44-.526 15.361 5.646 15.361 6.81 0 1.094.374 1.196-5.5-1.51zm375.061-.236c-.714-2.848 1.838-7.876 3.483-6.86.526.325.956.816.956 1.091s-.418.241-.93-.075c-.512-.317-1.214-.118-1.56.44-.345.56-.124 1.017.49 1.017.615 0 .84.45.5 1-.34.55-.141 1 .441 1 .583 0 1.053.787 1.044 1.75-.013 1.495-.156 1.532-.985.25-.835-1.293-.971-1.266-.984.19-.026 2.828-1.76 2.966-2.455.197zm-274.906-.216c-1.98-2.187-2.056-4.059-.263-6.421 1.656-2.182 6.187-2.29 7.001-.168 2.423 6.312-2.57 11.194-6.738 6.59zm-78.906.244c-1.04-1.04 1.403-6.426 3.4-7.494 1.559-.835 2.304-.587 3.819 1.27 1.85 2.269 1.845 2.348-.217 4.559-1.964 2.105-5.679 2.988-7.002 1.665zm90.251-.415c0-.55.477-1 1.06-1 .582 0 .78.45.44 1s-.816 1-1.059 1c-.242 0-.44-.45-.44-1zm5.08-1.583c.047-1.165.284-1.402.604-.605.288.722.253 1.585-.08 1.917-.332.332-.568-.258-.525-1.312zm184 .333c-.044-.963.37-1.75.92-1.75s1-.509 1-1.13c0-.622 1.529-3.259 3.397-5.859 2.072-2.883 3.094-5.217 2.621-5.983-.61-.986-.891-.963-1.318.109-.301.758-.577.317-.62-.994-.06-1.754.325-2.202 1.502-1.75.87.334 1.77.607 2 .607.23 0 .418.613.418 1.361 0 .922.888 1.224 2.75.935 2.64-.41 2.673-.364.81 1.138-1.068.861-1.406 1.566-.75 1.566 1.58 0 1.533 2.695-.06 3.338-.687.277-.237.54 1 .583 1.912.067 2.25-.437 2.25-3.353 0-2.74-.655-3.89-3.25-5.7-1.787-1.247-3.597-2.83-4.022-3.519-.424-.687-1.469-1.948-2.321-2.8-.852-.852-1.067-1.55-.478-1.55 1.351 0 1.4-5.515.072-7.998-.78-1.457-1.878-1.787-5-1.501-3.636.333-4 .152-4-1.984 0-1.292-.39-2.5-.866-2.683-.477-.183-.56-1.189-.184-2.234.581-1.621.884-1.4 2.059 1.5 1.674 4.134 2.579 4.825 5.351 4.085 2.046-.546 2.03-.597-.36-1.169-1.66-.396-2.617-1.41-2.848-3.017-.393-2.74-3.03-5.161-4.903-4.501-.687.242-1.25.005-1.25-.528s.395-.97.878-.97c1.705 0 7.795 2.902 8.8 4.193 1.649 2.12 4.322 11.41 4.322 15.023 0 3.634 2.347 7.785 4.402 7.785 1.749 0 4.35 3.051 4.69 5.5.153 1.1-.071 3.484-.497 5.298-.624 2.658-1.042 3.075-2.157 2.15-1.057-.877-1.734-.794-2.88.351-.841.842-3.02 1.427-4.973 1.335-2.528-.119-3.596.303-3.922 1.549-.246.941.066 1.896.695 2.12.628.226.377.297-.56.16-.936-.138-1.913.264-2.17.893-.259.63-.505.356-.549-.606zm8.592-8.237c-.095-.557.433-.886 1.172-.732 1.625.34 1.026-1.991-.656-2.552-.653-.218-1.188.317-1.188 1.188 0 .87-.434 1.583-.964 1.583-.531 0-1.422.853-1.98 1.896-.926 1.73-.804 1.797 1.386.764 1.32-.624 2.324-1.59 2.23-2.147zm-64.172 7.199c-.943-1.144-1.243-4.689-1.644-19.462-.131-4.831-.513-6.25-1.68-6.25-.83 0-1.213-.296-.85-.658.361-.362.098-1.346-.584-2.187-1.032-1.272-.966-1.426.395-.917 1.246.466 1.516.15 1.13-1.325-.412-1.578-.066-1.868 1.864-1.562 1.776.28 2.362 1.004 2.34 2.89-.021 1.734.445 2.423 1.5 2.215.84-.167 1.867-.337 2.28-.38.412-.042.802-1.089.865-2.326.105-2.032.165-2.057.62-.26.277 1.094 1.375 2.6 2.44 3.346 2.676 1.874 2.134 7.309-.86 8.623-3.136 1.377-5.998 8.54-3.412 8.54 1.041 0 10.638-14.662 12.08-18.458 1.301-3.42 5.64-3.702 4.493-.291-.416 1.237-.737 3.825-.715 5.75.03 2.53-.16 2.965-.686 1.572-.601-1.595-1.602-.557-5.789 6-2.784 4.36-5.975 8.92-7.092 10.132-1.117 1.213-2.323 3.125-2.68 4.25-.722 2.274-2.488 2.608-4.015.758zm62.373.038c.755-.963 2.33-1.698 3.5-1.634 2.02.11 2.027.14.127.608-1.1.27-2.675 1.005-3.5 1.634-1.304.993-1.32.914-.127-.608zM145.7 203.576c-.367-.366-.667-1.491-.667-2.5 0-1.289.743-1.833 2.5-1.833 2.572 0 2.946.676 1.893 3.418-.623 1.626-2.544 2.097-3.726.915zm240.833-.333c.34-.55.817-1 1.06-1 .242 0 .44.45.44 1s-.476 1-1.059 1c-.582 0-.78-.45-.44-1zm-298.02-3.032c-.388-.628-.235-1.613.34-2.188 1.344-1.344 4.477-.172 3.93 1.47-.556 1.672-3.386 2.148-4.27.718zm49.925-.357c-.652-1.699.224-3.611 1.654-3.611 1.262 0 1.207 3.718-.066 4.504-.554.343-1.268-.06-1.588-.893zm172.595.389c0-.55.45-1 1-1s1 .45 1 1-.45 1-1 1-1-.45-1-1zm19-.941c0-.518.45-1.22 1-1.56.55-.339 1 .084 1 .942 0 .857-.45 1.559-1 1.559s-1-.423-1-.941zm-28.842-2.06c0-1.374.227-1.937.505-1.25.277.688.277 1.813 0 2.5-.278.688-.505.126-.505-1.25zm61.178.434c-.833-2.172 1.283-4.215 2.797-2.7 1.28 1.28.487 4.267-1.133 4.267-.584 0-1.333-.705-1.664-1.567zm72.875-.971c-1.065-1.208-1.022-1.462.25-1.462.847 0 1.54.675 1.54 1.5 0 1.824-.15 1.82-1.79-.038zm-396.849-1.962c-.95-2.474.42-4.5 3.04-4.5 2.51 0 4.356 2.966 3.104 4.991-.962 1.556-5.498 1.193-6.144-.491zm272.759-3.696c-.926-4.252-1.605-5.555-2.68-5.143-1.027.394-1.44-.196-1.44-2.054 0-1.434.498-2.607 1.106-2.607.61 0 .848.675.532 1.5-.83 2.16.261 1.845 2.292-.662 1.206-1.49 1.974-1.801 2.47-1 .428.693.088 1.162-.842 1.162-1.85 0-1.904.741-.466 6.455.602 2.387.907 5.174.68 6.193-.227 1.018-.97-.711-1.652-3.844zm-235.12 3.196c0-.55.45-1 1-1s1 .45 1 1-.45 1-1 1-1-.45-1-1zm38.186-.75c.184-.963 1.342-1.894 2.574-2.07 2.586-.369 2.835.367.81 2.391-1.965 1.966-3.787 1.793-3.384-.321zm164.313.75c-.34-.55.084-1 .941-1 .858 0 1.56.45 1.56 1s-.424 1-.942 1c-.517 0-1.219-.45-1.559-1zm91.475.342c.564-.28 1.025-1.42 1.025-2.532 0-1.418-.464-1.846-1.552-1.428-.89.341-1.29.173-.94-.394.336-.543 1.289-.988 2.118-.988 1.878 0 1.505 5.221-.4 5.598-.702.138-.814.023-.25-.256zm51.525-.342c-.34-.55-1.716-1-3.059-1-2.867 0-3.372-2.982-.86-5.067 1.24-1.03 1.993-1.056 3.487-.123 1.048.655 2.586 1.19 3.419 1.19 1.805 0 2.008 3.105.313 4.8-1.462 1.462-2.481 1.524-3.3.2zm-158.59-1.077c-1.026-.65-.661-.897 1.34-.908 2.987-.016 3.524.474 1.41 1.285-.738.283-1.975.113-2.75-.377zm-122.794-.673c-.063-.688-.84-1.25-1.724-1.25-1.23 0-1.456-.608-.96-2.584.483-1.923.319-2.416-.641-1.926-.71.362-.474-.009.524-.824.999-.815 1.674-2.29 1.5-3.276-.21-1.2.59-2.12 2.416-2.778 3.933-1.418 4.39-.233 1.98 5.14-1.17 2.612-2.32 5.648-2.554 6.748-.233 1.1-.477 1.437-.54.75zm261.488-.083c-.283-.458.253-2.37 1.19-4.25 1.224-2.45 2.485-3.507 4.456-3.733 3.201-.369 3.22-.315 1.257 3.452-.822 1.575-1.497 2.35-1.5 1.72-.003-.628-.699-1.408-1.545-1.732-1.905-.731-3.811 3.483-2.086 4.61.813.532.794.74-.067.75-.655.009-1.422-.359-1.705-.817zm-142.791-.85c.722-.289 1.584-.254 1.917.079.332.332-.259.568-1.313.525-1.165-.048-1.402-.285-.604-.604zm84.687-.317c-.837-1.354.293-3 2.06-3 .792 0 1.44.9 1.44 2 0 2.07-2.412 2.76-3.5 1zm50.188.354c-1.54-1.54-.647-4.354 1.382-4.354 1.555 0 1.99.54 1.75 2.172-.332 2.255-1.94 3.375-3.132 2.182zm2.312-1.854c0-.825-.45-1.5-1-1.5s-1 .675-1 1.5.45 1.5 1 1.5 1-.675 1-1.5zm-231.5.5c.34-.55.817-1 1.06-1 .242 0 .44.45.44 1s-.476 1-1.059 1c-.582 0-.78-.45-.44-1zm175 0c-.34-.55-.141-1 .441-1 .583 0 1.06.45 1.06 1s-.199 1-.442 1c-.242 0-.719-.45-1.059-1zm-170-2c-.815-1.32.38-3.192 1.57-2.457 1.214.75 1.206 3.457-.01 3.457-.518 0-1.22-.45-1.56-1zm109.74.169c-.938-.595-.617-1.405 1.25-3.159 1.38-1.297 2.517-1.943 2.524-1.434.008.508.285 1.936.617 3.174.468 1.748.186 2.247-1.264 2.235-1.027-.008-2.434-.376-3.127-.816zm69.76-.17c0-.55.45-1 1-1s1 .45 1 1-.45 1-1 1-1-.45-1-1zm-285-1c0-.55.45-1 1-1s1 .45 1 1-.45 1-1 1-1-.45-1-1zm38.56-2.53c-1.068-.808-1.458-1.47-.867-1.47.59 0 1.302-.87 1.58-1.934.61-2.335-1.853-3.601-2.702-1.39-.468 1.221-.897 1.299-2.022.365-1.206-1-.971-1.663 1.512-4.26 3.488-3.651 3.519-3.875.937-6.92-1.1-1.298-1.755-1.645-1.454-.77.301.874-.105 2.131-.903 2.793-1.188.986-1.719.666-2.934-1.77-1.396-2.798-1.344-3.105.876-5.19 1.776-1.669 2.685-1.946 3.68-1.12.992.824 1.601.644 2.456-.724 1.208-1.935 1.101-2.022-6.219-5.086-1.65-.69-2.507-1.435-1.906-1.655.602-.22 3.27.532 5.928 1.671 3.162 1.355 5.823 1.854 7.696 1.443 1.867-.41 3.723-.066 5.333.99 1.882 1.232 2.943 1.364 4.46.552 1.094-.585 1.99-1.499 1.99-2.03 0-.53.402-.964.894-.964.493 0 1.066 1.788 1.274 3.974.224 2.341.011 3.606-.516 3.078-1.348-1.347-3.653-.088-3.653 1.996 0 1.009-.45 2.112-1 2.452-.55.34-1 1.665-1 2.945 0 1.992-.649 2.425-4.5 3.003-4.817.722-5.767 2.55-3.342 6.433 2.557 4.094-1.496 6.69-5.599 3.587zm61.82.079c-.712-1.856.327-3.548 2.18-3.548.87 0 1.44.99 1.44 2.5 0 2.748-2.67 3.52-3.62 1.048zm210.966-.091c-.326-.849-.342-1.794-.036-2.1.876-.876 2.69.61 2.69 2.202 0 1.919-1.907 1.845-2.654-.102zm-285.346-.457c-1.18-.73-1.23-1.17-.241-2.158.966-.966 1.508-.975 2.441-.042 1.623 1.622-.194 3.44-2.2 2.2zm87.667.333c-1.28-1.28-.651-3.902 1.345-5.61 2.75-2.355 2.988-2.222 2.988 1.67 0 2.171-.569 3.611-1.581 4-1.959.752-1.94.752-2.752-.06zm9.333-1.302c0-.532.675-.71 1.5-.393.825.317 1.5.753 1.5.969 0 .216-.675.393-1.5.393s-1.5-.436-1.5-.969zm91.357-.544c-.9-2.345 1.145-4.025 3.537-2.904 1.888.884 1.87.983-.478 2.722-2.211 1.637-2.494 1.654-3.059.182zm-125.357-.987c0-.825.675-1.5 1.5-1.5s1.5.675 1.5 1.5-.675 1.5-1.5 1.5-1.5-.675-1.5-1.5zm302-.941c0-1.743 1.64-2.9 2.957-2.086 1.33.823.132 3.527-1.564 3.527-.766 0-1.393-.648-1.393-1.441zm-184-1.56c0-.55.424-1 .941-1 .518 0 1.22.45 1.56 1 .34.55-.084 1-.942 1-.857 0-1.559-.45-1.559-1zm-137.466-1.962c-1.166-1.289-1.512-2.576-1.006-3.75.423-.983.68-2.726.571-3.873-.11-1.147.499-2.665 1.351-3.372 2.276-1.89 4.512.364 4.36 4.395-.067 1.787.178 3.733.543 4.325.66 1.068-1.785 4.238-3.269 4.238-.425 0-1.573-.883-2.55-1.963zm240.32.293c-.907-.24-1.874-1.3-2.15-2.354-.48-1.838-.404-1.846 1.866-.196 1.302.946 2.382 2.057 2.399 2.47.017.412-.081.698-.219.634-.137-.064-.99-.313-1.897-.554zm-226.775-1.913c.048-1.165.285-1.402.605-.605.288.722.253 1.585-.08 1.917-.332.332-.568-.258-.525-1.312zm215.421.583c-.34-.55-.141-1 .441-1 .583 0 1.06.45 1.06 1s-.199 1-.442 1c-.242 0-.719-.45-1.059-1zm50.043.069c-.316-.512-.1-1.225.482-1.584.581-.36.818-1.628.525-2.82-.292-1.19-.273-1.603.043-.915 1.014 2.208 2.408 1.335 2.394-1.5-.026-5.193-.98-7.06-3.323-6.509-1.943.457-1.998.369-.536-.866 1.166-.985 1.49-2.437 1.142-5.117-.438-3.37-.725-3.682-2.891-3.138-2.945.739-5.413-1.128-5.279-3.992.088-1.883.18-1.84.794.367.704 2.531 4.394 4.322 3.767 1.828-.183-.728-.144-.986.087-.573 1.176 2.104 2.17.295 1.648-3-.912-5.763-2.651-7.171-3.92-3.175-.362 1.142-.879 1.855-1.148 1.586-.847-.847 1.679-4.661 3.086-4.661 1.723 0 2.833 3.154 5.459 15.51 2.336 10.99 2.589 14.087 1.221 14.932-.498.308-.67 1.46-.383 2.559.357 1.367.03 1.999-1.035 1.999-.857 0-1.817-.419-2.133-.931zm-25.366-3.622c.452-2.172 2.227-2.305 2.633-.197.21 1.095-.28 1.75-1.31 1.75-.96 0-1.512-.647-1.323-1.553zm-211.985-1.522c.197-.591.786-1.075 1.308-1.075.523 0 1.112.484 1.309 1.075.197.591-.392 1.075-1.309 1.075-.916 0-1.505-.484-1.308-1.075zm89.808-.925c0-.55.45-1 1-1s1 .45 1 1-.45 1-1 1-1-.45-1-1zm40.5-1c-.34-.55-1.716-1-3.059-1-2.867 0-3.372-2.982-.86-5.067 1.24-1.03 1.993-1.056 3.487-.123 1.048.655 2.586 1.19 3.419 1.19 1.805 0 2.008 3.105.313 4.8-1.462 1.462-2.481 1.524-3.3.2zm16.862-.5c-.317-.825-1.765-1.514-3.219-1.532-3.87-.046-6.143-2.21-6.143-5.847 0-2.87-.228-3.102-2.5-2.532-3.417.858-3.22-1.022.497-4.739 2.507-2.507 2.828-3.351 1.97-5.173-.995-2.115-.977-2.113.627.073.907 1.237 2.478 2.25 3.489 2.25 3.376 0 12.917 3.396 12.917 4.597 0 .652-1.125 1.468-2.5 1.814-2.37.595-3.622 3.589-1.5 3.589 1.976 0 1.021 4.182-1.08 4.731-1.434.375-1.93 1.123-1.594 2.407.582 2.223-.145 2.496-.964.362zm88.203-2.207c-.543-1.425-.428-1.54.56-.56.683.679.99 1.486.682 1.793-.308.308-.867-.247-1.242-1.233zm-64.565.32c0-.212 1.327-.58 2.948-.819 1.62-.238 2.719-.064 2.44.387-.495.802-5.388 1.194-5.388.432zM76.365 164.74c-3.654-1.536-4.193-2.945-4.108-10.747.043-4.015.454-5.75 1.36-5.75.714 0 1.577.45 1.916 1 .34.55 1.632 1 2.87 1 5.203 0 9.083 7.134 6.24 11.472-2.452 3.743-4.656 4.548-8.278 3.025zm255.868.303c-.66-.66-1.2-1.932-1.2-2.826 0-2.42 4.385-6.148 6.345-5.395 1.101.422 1.655.117 1.655-.913 0-2.011 1.9-3.166 3.152-1.915.636.637.51 1.461-.361 2.363-.736.762-1.315 2.06-1.286 2.886.029.825-.748 2.088-1.726 2.807-.978.718-1.779 1.956-1.779 2.75 0 1.748-3.135 1.907-4.8.243zm-247.2-.8c0-.55.45-1 1-1s1 .45 1 1-.45 1-1 1-1-.45-1-1zm260.09-.254c-.049-.964.706-3.214 1.678-5 1.29-2.37 2.573-3.326 4.75-3.541 1.64-.162 4.17-1.15 5.62-2.196 1.45-1.046 2.912-1.626 3.25-1.289 1.004 1.005.695 3.28-.447 3.28-.582 0-.78-.45-.44-1 1.333-2.157-.612-1.11-4.794 2.58-.674.594-1.758.903-2.41.685-2.184-.727-5.242 1.75-6.184 5.008-.513 1.775-.973 2.438-1.022 1.473zm7.942.615c.045-1.22 2.862-4.802 3.372-4.288.233.235-.437 1.49-1.49 2.788-1.052 1.298-1.9 1.973-1.882 1.5zm-220.16-4.111c-1.243-1.586-1.208-1.621.378-.378.963.755 1.75 1.543 1.75 1.75 0 .823-.82.294-2.127-1.372zm293.532.36c-.91-2.37 1.164-4.443 2.804-2.803.942.943.841 1.573-.464 2.878-1.56 1.56-1.714 1.555-2.34-.075zm-69.404-2.492c0-.55.45-1.278 1-1.618.55-.34 1-.168 1 .382s-.45 1.278-1 1.618c-.55.34-1 .168-1-.382zm-106.31-1.272c-1.855-1.038-2.278-4.364-.68-5.352 1.96-1.212 4.99.589 4.99 2.966 0 2.697-1.887 3.742-4.31 2.386zm-140.051-1.346c.316-.825.752-1.5.968-1.5.217 0 .393.675.393 1.5s-.435 1.5-.968 1.5c-.533 0-.71-.675-.393-1.5zm4.63.807c.973-.254 2.323-.237 3 .037.677.274-.119.481-1.769.461-1.65-.02-2.204-.244-1.23-.498zm186.196-1.364c-1.04-1.683-1.274-5.943-.327-5.943.474 0 .862.477.862 1.059s.45.78 1 .44c.55-.339 1-.114 1 .5 0 .616.563.834 1.25.486.688-.348.418.045-.6.874-1.017.83-1.553 1.988-1.19 2.574.362.587.208 1.067-.342 1.067s-1.294-.476-1.653-1.057zm-246.965-.943c-.399-.646-.275-1.624.275-2.174.666-.667 1.242-.609 1.725.174.4.646.276 1.624-.274 2.174-.667.667-1.242.609-1.726-.174zm60.947-.087c-1.03-1.668 1.287-3.58 2.666-2.2 1.154 1.154.432 3.287-1.113 3.287-.485 0-1.184-.49-1.553-1.087zm259.713-3.663c.158-3.692.167-3.7.564-.5.478 3.857.854 3.946 4.212 1l2.564-2.25-2.424 2.75c-3.444 3.907-5.11 3.568-4.916-1zm-178.01-4.38c-3.243-7.085-3.477-9.87-.829-9.87 1.448 0 7.68 12.438 7.68 15.33 0 .94-.785 1.67-1.795 1.67-1.252 0-2.779-2.152-5.057-7.13zm134.698 6.064c-.891-.498-1.911-2.6-2.268-4.67-1.395-8.102-1.769-9.158-3.396-9.587-1.522-.402-1.516-.456.066-.561.963-.064 1.75-.791 1.75-1.616 0-.825.45-1.5 1-1.5s1 .45 1 1 1.099 1 2.441 1c1.343 0 2.733.472 3.09 1.049.445.72 1.075.693 2.015-.087.752-.624 1.805-.863 2.341-.532.537.331 1.259.144 1.605-.416.413-.67 1.25-.687 2.438-.052.994.532 2.2.646 2.678.253.48-.393.087.222-.872 1.368-1.335 1.595-1.62 3.234-1.221 7 .374 3.526.254 4.351-.426 2.917-.521-1.1-.98-3.05-1.018-4.333-.109-3.607-2.493-2.002-2.684 1.806-.095 1.875-.87 3.718-1.777 4.226-.885.495-1.61 1.457-1.61 2.138 0 1.502-2.93 1.841-5.152.597zm30.152.125c0-.518.45-1.22 1-1.56.55-.339 1 .084 1 .942 0 .857-.45 1.559-1 1.559s-1-.423-1-.941zm-223.442-2.834c-.307-.307-.558-1.415-.558-2.461 0-2.401 4.325-2.079 4.789.357.3 1.58-3.076 3.258-4.23 2.104zm30.442-.225c0-.55.477-1 1.06-1 .582 0 .78.45.44 1s-.816 1-1.059 1c-.242 0-.44-.45-.44-1zm113-3c0-1.111.667-2 1.5-2 .834 0 1.5.889 1.5 2s-.666 2-1.5 2c-.833 0-1.5-.889-1.5-2zm100.261-.325c-.017-4.464-1.977-5.661-4.382-2.675-1.771 2.2-1.882 2.232-.923.273.6-1.225 1.984-2.706 3.077-3.29 1.698-.91 2.138-.664 3.034 1.692.661 1.74.708 3.505.126 4.79-.825 1.823-.922 1.74-.932-.79zm71.24 1.325c-.34-.55-1.717-1-3.06-1-2.867 0-3.372-2.982-.86-5.067 1.24-1.03 1.993-1.056 3.487-.123 1.048.655 2.586 1.19 3.419 1.19 1.805 0 2.008 3.105.313 4.8-1.462 1.462-2.481 1.524-3.3.2zm-216.5-1.441c0-.793.456-1.723 1.015-2.068.558-.345 1.707-2.285 2.552-4.31 2.142-5.13 6.51-12.436 7.09-11.857.264.265.011 1.313-.563 2.329-.574 1.016-1.721 3.422-2.55 5.347-.827 1.925-1.964 4.175-2.525 5-.561.825-1.46 2.737-1.995 4.25-1.027 2.897-3.025 3.761-3.025 1.309zm72.426-.324c-1.101-.755-2.686-3.955-2.84-5.735-.121-1.402-5.587-1.898-5.587-.507 0 .619-.411.87-.914.56-.503-.311-1.143 0-1.421.69-.386.957-.526.965-.586.033-.043-.674 1.317-1.947 3.023-2.829 2.963-1.532 3.21-1.503 5.5.649 1.32 1.239 2.398 2.701 2.398 3.25 0 .548.745 1.82 1.655 2.825 1.636 1.807.851 2.487-1.228 1.064zm-209.427-1.735c0-.825.45-1.5 1-1.5s1 .675 1 1.5-.45 1.5-1 1.5-1-.675-1-1.5zm53.158-.5c0-1.375.227-1.938.505-1.25.277.687.277 1.812 0 2.5-.278.687-.505.125-.505-1.25zm94.375 1.053c-.358-.58-1.524-1.053-2.592-1.053-2.037 0-2.672-2.43-.917-3.515 1.565-.967 7.06 1.826 6.75 3.432-.348 1.802-2.388 2.517-3.241 1.136zm-95.533-5.035c0-.584-1.131-1.577-2.514-2.207-4.881-2.224-4.896-10.183-.024-12.79 7.444-3.984 13.904 6.027 7.585 11.754-4.007 3.632-5.047 4.3-5.047 3.243zm-76.21-1.762c-1.591-1.823-3.79-5.705-3.79-6.69 0-1.76 1.93-.036 3.917 3.5 2.45 4.357 2.38 6.065-.128 3.19zm205.71-1.256c-.995-1.1-2.415-2-3.155-2-.74 0-1.345-.675-1.345-1.5 0-2.224.786-1.87 4.436 2 1.815 1.925 2.98 3.5 2.587 3.5-.392 0-1.527-.9-2.523-2zm13.008.011c-.35-.567.05-.734.94-.393 1.733.665 2.05 1.382.611 1.382-.517 0-1.215-.445-1.551-.989zm192.492-2.452c0-1.743 1.64-2.9 2.957-2.086 1.33.823.132 3.527-1.564 3.527-.766 0-1.393-.648-1.393-1.441zm-450.312-6.205c-1.374-1.374-.661-3.496 1.062-3.164.963.186 1.75.969 1.75 1.74 0 1.58-1.764 2.472-2.812 1.424zm289.391-.937c.048-1.165.285-1.402.605-.605.288.722.253 1.585-.08 1.917-.332.332-.568-.258-.525-1.312zm34.546-3.215c-.27-.439-.129-1.387.316-2.107.569-.919 1.013-.979 1.493-.202.377.609.181 1.107-.434 1.107-.614 0-.84.45-.5 1 .34.55.393 1 .118 1s-.721-.359-.993-.798zM74.51 118.721c-2.187-1.872-3.527-3.402-2.977-3.4 1.307.004 8.014 5.741 7.414 6.341-.253.254-2.25-1.07-4.437-2.941zm29.523-1.478c0-.55.45-1 1-1s1 .45 1 1-.45 1-1 1-1-.45-1-1zm-55.612-2.531c-.912-1.392-1.461-2.729-1.22-2.97.24-.24 1.227.899 2.192 2.532 2.135 3.615 1.343 3.972-.972.438zm175.401.787c-1.59-1.823-3.789-5.705-3.789-6.69 0-1.76 1.93-.036 3.917 3.5 2.45 4.357 2.38 6.065-.128 3.19zm-93.164-10.584c-.917-3.507 2.236-7.325 3.868-4.684.35.567-.05.735-.94.394-2.015-.773-2.024 1.255-.012 2.38 1.786 1 1.034 3.905-1.01 3.905-.762 0-1.62-.898-1.906-1.995zm223.875-5.839c1.1-.608 2.922-1.832 4.049-2.72 1.126-.887.781-.376-.766 1.137-1.548 1.512-3.37 2.736-4.048 2.72-.68-.017-.335-.529.765-1.137zm-39-1.833c-.34-.55.11-1 1-1s1.34.45 1 1c-.34.55-.79 1-1 1-.21 0-.66-.45-1-1zm-105.5-3.896c0-1.593-1.348-6.206-2.996-10.25-1.648-4.045-3.001-7.804-3.006-8.354-.005-.55-.666-2.258-1.468-3.795-1.369-2.625-1.322-2.846.756-3.62 1.218-.452 2.72-.63 3.34-.395 1.726.657 4.196 7.12 5.403 14.142.6 3.483 1.584 7.419 2.189 8.746.895 1.964.762 2.788-.714 4.418-2.502 2.765-3.504 2.51-3.504-.892zm143.89.646c-.65-1.238-1.79-2.61-2.536-3.05-1.761-1.04-1.9-10.814-.149-10.45.662.137 1.225-.329 1.25-1.037.025-.707.654-1.662 1.397-2.121.949-.587.44-.97-1.711-1.285-1.685-.247-3.236.033-3.448.622-.212.589-.338.396-.28-.43.063-.918 1.315-1.617 3.229-1.804 2.686-.262 3.27.114 4.163 2.673 1.504 4.316 4.42 5.59 8.457 3.693 1.781-.837 4.363-1.643 5.738-1.791 2.2-.238 2.512.126 2.6 3.036.056 1.831-.72 4.35-1.74 5.645-2.062 2.622-8.86 6.946-8.86 5.637 0-.465 1.318-1.391 2.928-2.058 3.926-1.626 5.738-3.872 6.277-7.78.497-3.596-.654-4.465-1.52-1.15-.303 1.157-1.03 1.805-1.617 1.442-.65-.402-1.068.34-1.068 1.899 0 1.407-.337 2.506-.75 2.44-2.062-.325-3.25.266-3.25 1.619 0 .825-.476 1.5-1.059 1.5-.582 0-.78-.45-.44-1s.14-1-.442-1c-.582 0-1.059.675-1.059 1.5 0 .944-.952 1.5-2.567 1.5-2.112 0-2.455.354-1.933 2 .856 2.694-.146 2.539-1.61-.25zm10.238-8.5c1.27-1.619 1.222-1.64-.628-.283a168.61 168.61 0 0 1-2.416 1.75c-.23.156.053.283.627.283.575 0 1.662-.788 2.417-1.75zm-17.97-.25c0-1.375.227-1.938.505-1.25.277.687.277 1.812 0 2.5-.278.687-.505.125-.505-1.25zm-277.47-4.646c-1.374-1.374-.661-3.496 1.062-3.164.963.186 1.75.969 1.75 1.74 0 1.58-1.764 2.472-2.812 1.424zm37.789-8.876c-2.187-1.872-3.527-3.402-2.977-3.4 1.307.004 8.014 5.741 7.414 6.341-.253.254-2.25-1.07-4.437-2.941zm245.982-3.545c-.362-.586-.444-1.28-.182-1.543.262-.262.743.218 1.069 1.067.676 1.762.1 2.072-.887.476zm5.124-7.799c-.43-.697-.513-1.537-.183-1.867.895-.895 1.871.421 1.388 1.871-.339 1.016-.575 1.016-1.205-.004z" fill="#ffa346"/></svg>